# MagicaVoxel @ ephtracy

# material
mtllib Prostituierte1.mtl
usemtl palette

# normals
vn -1 0 0
vn 1 0 0
vn 0 0 1
vn 0 0 -1
vn 0 -1 0
vn 0 1 0

# texcoords
vt 0.0371094 0.5
vt 0.0605469 0.5
vt 0.275391 0.5
vt 0.841797 0.5
vt 0.857422 0.5
vt 0.861328 0.5
vt 0.994141 0.5

# verts
v 9 6 1.5
v 9 6 0.5
v 9 7 1.5
v 9 7 0.5
v 10 4 2.5
v 10 4 -0.5
v 10 5 2.5
v 10 5 -0.5
v 10 7 1.5
v 10 7 0.5
v 10 8 1.5
v 10 8 0.5
v 10 9 1.5
v 10 9 -1.5
v 10 10 2.5
v 10 10 1.5
v 10 11 3.5
v 10 11 2.5
v 10 15 3.5
v 10 15 -1.5
v 11 0 1.5
v 11 0 0.5
v 11 2 1.5
v 11 2 0.5
v 11 4 3.5
v 11 4 2.5
v 11 4 1.5
v 11 4 0.5
v 11 4 -0.5
v 11 4 -1.5
v 11 5 3.5
v 11 5 2.5
v 11 5 -0.5
v 11 5 -1.5
v 11 7 1.5
v 11 7 0.5
v 11 8 1.5
v 11 8 0.5
v 11 8 -0.5
v 11 8 -1.5
v 11 9 2.5
v 11 9 1.5
v 11 9 -0.5
v 11 9 -1.5
v 12 7 -0.5
v 12 7 -1.5
v 12 8 -0.5
v 12 8 -1.5
v 12 9 1.5
v 12 9 0.5
v 12 10 1.5
v 12 10 0.5
v 14 0 1.5
v 14 0 0.5
v 14 2 1.5
v 14 2 0.5
v 14 4 1.5
v 14 4 0.5
v 14 7 3.5
v 14 7 2.5
v 14 8 2.5
v 14 9 3.5
v 14 9 2.5
v 15 9 3.5
v 15 9 2.5
v 15 9 -0.5
v 15 10 2.5
v 15 10 -0.5
v 15 11 2.5
v 15 12 2.5
v 15 13 3.5
v 15 13 2.5
v 16 6 1.5
v 16 6 0.5
v 16 7 1.5
v 16 7 0.5
v 10 6 1.5
v 10 6 0.5
v 10 7 1.5
v 10 7 0.5
v 11 9 1.5
v 11 9 -0.5
v 11 10 1.5
v 11 10 -0.5
v 11 11 3.5
v 11 11 2.5
v 11 12 2.5
v 11 13 3.5
v 11 13 2.5
v 12 0 1.5
v 12 0 0.5
v 12 2 1.5
v 12 2 0.5
v 12 4 1.5
v 12 4 0.5
v 14 7 -0.5
v 14 7 -1.5
v 14 8 -0.5
v 14 8 -1.5
v 14 9 1.5
v 14 9 0.5
v 14 10 1.5
v 14 10 0.5
v 15 0 1.5
v 15 0 0.5
v 15 2 1.5
v 15 2 0.5
v 15 4 3.5
v 15 4 2.5
v 15 4 1.5
v 15 4 0.5
v 15 4 -0.5
v 15 4 -1.5
v 15 5 3.5
v 15 5 2.5
v 15 5 -0.5
v 15 5 -1.5
v 15 7 2.5
v 15 7 1.5
v 15 7 0.5
v 15 8 2.5
v 15 8 1.5
v 15 8 0.5
v 15 8 -0.5
v 15 8 -1.5
v 15 9 -0.5
v 15 9 -1.5
v 16 4 2.5
v 16 4 -0.5
v 16 5 2.5
v 16 5 -0.5
v 16 7 3.5
v 16 7 2.5
v 16 7 1.5
v 16 7 0.5
v 16 8 2.5
v 16 8 1.5
v 16 8 0.5
v 16 8 -0.5
v 16 9 -0.5
v 16 9 -1.5
v 16 15 3.5
v 16 15 -1.5
v 17 6 1.5
v 17 6 0.5
v 17 7 1.5
v 17 7 0.5
v 10 11 3.5
v 10 15 3.5
v 11 4 3.5
v 11 5 3.5
v 11 11 3.5
v 11 13 3.5
v 14 7 3.5
v 14 9 3.5
v 15 4 3.5
v 15 5 3.5
v 15 9 3.5
v 15 13 3.5
v 16 7 3.5
v 16 15 3.5
v 10 4 2.5
v 10 5 2.5
v 10 10 2.5
v 10 11 2.5
v 11 4 2.5
v 11 5 2.5
v 11 9 2.5
v 11 10 2.5
v 11 11 2.5
v 11 12 2.5
v 11 13 2.5
v 12 7 2.5
v 12 8 2.5
v 12 10 2.5
v 12 11 2.5
v 12 12 2.5
v 14 7 2.5
v 14 8 2.5
v 14 9 2.5
v 14 10 2.5
v 14 11 2.5
v 14 12 2.5
v 15 4 2.5
v 15 5 2.5
v 15 7 2.5
v 15 10 2.5
v 15 11 2.5
v 15 12 2.5
v 15 13 2.5
v 16 4 2.5
v 16 5 2.5
v 9 6 1.5
v 9 7 1.5
v 10 6 1.5
v 10 7 1.5
v 10 8 1.5
v 10 9 1.5
v 10 10 1.5
v 11 0 1.5
v 11 2 1.5
v 11 4 1.5
v 11 7 1.5
v 11 8 1.5
v 11 9 1.5
v 11 10 1.5
v 12 0 1.5
v 12 2 1.5
v 12 4 1.5
v 12 9 1.5
v 12 10 1.5
v 14 0 1.5
v 14 2 1.5
v 14 4 1.5
v 14 9 1.5
v 14 10 1.5
v 15 0 1.5
v 15 2 1.5
v 15 4 1.5
v 15 7 1.5
v 15 8 1.5
v 16 6 1.5
v 16 7 1.5
v 16 8 1.5
v 17 6 1.5
v 17 7 1.5
v 11 9 -0.5
v 11 10 -0.5
v 15 9 -0.5
v 15 10 -0.5
v 15 7 2.5
v 15 8 2.5
v 16 7 2.5
v 16 8 2.5
v 9 6 0.5
v 9 7 0.5
v 10 6 0.5
v 10 7 0.5
v 10 8 0.5
v 11 0 0.5
v 11 2 0.5
v 11 4 0.5
v 11 7 0.5
v 11 8 0.5
v 12 0 0.5
v 12 2 0.5
v 12 4 0.5
v 12 9 0.5
v 12 10 0.5
v 14 0 0.5
v 14 2 0.5
v 14 4 0.5
v 14 9 0.5
v 14 10 0.5
v 15 0 0.5
v 15 2 0.5
v 15 4 0.5
v 15 7 0.5
v 15 8 0.5
v 16 6 0.5
v 16 7 0.5
v 16 8 0.5
v 17 6 0.5
v 17 7 0.5
v 10 4 -0.5
v 10 5 -0.5
v 11 4 -0.5
v 11 5 -0.5
v 11 8 -0.5
v 12 7 -0.5
v 12 8 -0.5
v 14 7 -0.5
v 14 8 -0.5
v 15 4 -0.5
v 15 5 -0.5
v 15 8 -0.5
v 15 9 -0.5
v 16 4 -0.5
v 16 5 -0.5
v 16 8 -0.5
v 16 9 -0.5
v 10 9 -1.5
v 10 15 -1.5
v 11 4 -1.5
v 11 5 -1.5
v 11 8 -1.5
v 11 9 -1.5
v 12 7 -1.5
v 12 8 -1.5
v 14 7 -1.5
v 14 8 -1.5
v 15 4 -1.5
v 15 5 -1.5
v 15 8 -1.5
v 15 9 -1.5
v 16 9 -1.5
v 16 15 -1.5
v 11 0 1.5
v 12 0 1.5
v 14 0 1.5
v 15 0 1.5
v 11 0 0.5
v 12 0 0.5
v 14 0 0.5
v 15 0 0.5
v 11 4 3.5
v 15 4 3.5
v 10 4 2.5
v 11 4 2.5
v 15 4 2.5
v 16 4 2.5
v 11 4 1.5
v 12 4 1.5
v 14 4 1.5
v 15 4 1.5
v 11 4 0.5
v 12 4 0.5
v 14 4 0.5
v 15 4 0.5
v 10 4 -0.5
v 11 4 -0.5
v 15 4 -0.5
v 16 4 -0.5
v 11 4 -1.5
v 15 4 -1.5
v 9 6 1.5
v 10 6 1.5
v 16 6 1.5
v 17 6 1.5
v 9 6 0.5
v 10 6 0.5
v 16 6 0.5
v 17 6 0.5
v 14 7 3.5
v 16 7 3.5
v 14 7 2.5
v 15 7 2.5
v 16 7 2.5
v 10 7 1.5
v 11 7 1.5
v 15 7 1.5
v 16 7 1.5
v 10 7 0.5
v 11 7 0.5
v 15 7 0.5
v 16 7 0.5
v 12 7 -0.5
v 14 7 -0.5
v 12 7 -1.5
v 14 7 -1.5
v 15 8 2.5
v 16 8 2.5
v 15 8 1.5
v 16 8 1.5
v 15 8 0.5
v 16 8 0.5
v 11 8 -0.5
v 12 8 -0.5
v 14 8 -0.5
v 15 8 -0.5
v 16 8 -0.5
v 11 8 -1.5
v 12 8 -1.5
v 14 8 -1.5
v 15 8 -1.5
v 10 9 1.5
v 11 9 1.5
v 11 9 -0.5
v 15 9 -0.5
v 16 9 -0.5
v 10 9 -1.5
v 11 9 -1.5
v 15 9 -1.5
v 16 9 -1.5
v 10 10 2.5
v 11 10 2.5
v 12 10 2.5
v 14 10 2.5
v 15 10 2.5
v 10 10 1.5
v 11 10 1.5
v 12 10 1.5
v 14 10 1.5
v 12 10 0.5
v 14 10 0.5
v 11 10 -0.5
v 15 10 -0.5
v 10 11 3.5
v 11 11 3.5
v 10 11 2.5
v 11 11 2.5
v 11 13 3.5
v 15 13 3.5
v 11 13 2.5
v 15 13 2.5
v 11 5 3.5
v 15 5 3.5
v 10 5 2.5
v 11 5 2.5
v 15 5 2.5
v 16 5 2.5
v 10 5 -0.5
v 11 5 -0.5
v 15 5 -0.5
v 16 5 -0.5
v 11 5 -1.5
v 15 5 -1.5
v 9 7 1.5
v 10 7 1.5
v 16 7 1.5
v 17 7 1.5
v 9 7 0.5
v 10 7 0.5
v 16 7 0.5
v 17 7 0.5
v 10 8 1.5
v 11 8 1.5
v 10 8 0.5
v 11 8 0.5
v 14 9 3.5
v 15 9 3.5
v 11 9 2.5
v 14 9 2.5
v 15 9 2.5
v 11 9 1.5
v 12 9 1.5
v 14 9 1.5
v 12 9 0.5
v 14 9 0.5
v 11 9 -0.5
v 15 9 -0.5
v 10 15 3.5
v 16 15 3.5
v 10 15 -1.5
v 16 15 -1.5

# faces
f 3/6/1 2/6/1 1/6/1
f 4/6/1 2/6/1 3/6/1
f 7/7/1 6/7/1 5/7/1
f 8/7/1 6/7/1 7/7/1
f 11/2/1 10/2/1 9/2/1
f 12/2/1 10/2/1 11/2/1
f 16/1/1 14/1/1 13/1/1
f 18/1/1 16/1/1 15/1/1
f 19/1/1 18/1/1 17/1/1
f 20/1/1 14/1/1 16/1/1
f 20/1/1 18/1/1 19/1/1
f 20/1/1 16/1/1 18/1/1
f 23/6/1 22/6/1 21/6/1
f 24/6/1 22/6/1 23/6/1
f 27/2/1 24/2/1 23/2/1
f 28/2/1 24/2/1 27/2/1
f 31/7/1 26/7/1 25/7/1
f 32/7/1 26/7/1 31/7/1
f 33/7/1 30/7/1 29/7/1
f 34/7/1 30/7/1 33/7/1
f 35/7/1 33/7/1 32/7/1
f 36/7/1 33/7/1 35/7/1
f 37/7/1 35/7/1 32/7/1
f 38/7/1 33/7/1 36/7/1
f 39/7/1 33/7/1 38/7/1
f 41/7/1 37/7/1 32/7/1
f 41/7/1 38/7/1 37/7/1
f 41/7/1 39/7/1 38/7/1
f 42/7/1 39/7/1 41/7/1
f 43/1/1 40/1/1 39/1/1
f 43/7/1 39/7/1 42/7/1
f 44/1/1 40/1/1 43/1/1
f 47/1/1 46/1/1 45/1/1
f 48/1/1 46/1/1 47/1/1
f 51/2/1 50/2/1 49/2/1
f 52/2/1 50/2/1 51/2/1
f 55/6/1 54/6/1 53/6/1
f 56/6/1 54/6/1 55/6/1
f 57/2/1 56/2/1 55/2/1
f 58/2/1 56/2/1 57/2/1
f 61/1/1 60/1/1 59/1/1
f 62/1/1 61/1/1 59/1/1
f 63/1/1 61/1/1 62/1/1
f 67/1/1 65/1/1 64/1/1
f 67/1/1 66/1/1 65/1/1
f 68/1/1 66/1/1 67/1/1
f 69/1/1 67/1/1 64/1/1
f 70/1/1 69/1/1 64/1/1
f 71/1/1 70/1/1 64/1/1
f 72/1/1 70/1/1 71/1/1
f 75/5/1 74/5/1 73/5/1
f 76/5/1 74/5/1 75/5/1
f 77/6/2 78/6/2 79/6/2
f 79/6/2 78/6/2 80/6/2
f 81/1/2 82/1/2 83/1/2
f 83/1/2 82/1/2 84/1/2
f 85/1/2 86/1/2 87/1/2
f 85/1/2 87/1/2 88/1/2
f 88/1/2 87/1/2 89/1/2
f 90/6/2 91/6/2 92/6/2
f 92/6/2 91/6/2 93/6/2
f 92/2/2 93/2/2 94/2/2
f 94/2/2 93/2/2 95/2/2
f 96/1/2 97/1/2 98/1/2
f 98/1/2 97/1/2 99/1/2
f 100/2/2 101/2/2 102/2/2
f 102/2/2 101/2/2 103/2/2
f 104/6/2 105/6/2 106/6/2
f 106/6/2 105/6/2 107/6/2
f 106/2/2 107/2/2 110/2/2
f 110/2/2 107/2/2 111/2/2
f 108/7/2 109/7/2 114/7/2
f 114/7/2 109/7/2 115/7/2
f 112/7/2 113/7/2 116/7/2
f 116/7/2 113/7/2 117/7/2
f 115/7/2 116/7/2 118/7/2
f 118/7/2 116/7/2 119/7/2
f 119/7/2 116/7/2 120/7/2
f 118/7/2 119/7/2 121/7/2
f 121/7/2 119/7/2 122/7/2
f 120/7/2 116/7/2 123/7/2
f 123/7/2 116/7/2 124/7/2
f 124/1/2 125/1/2 126/1/2
f 126/1/2 125/1/2 127/1/2
f 128/7/2 129/7/2 130/7/2
f 130/7/2 129/7/2 131/7/2
f 132/1/2 133/1/2 136/1/2
f 134/2/2 135/2/2 137/2/2
f 137/2/2 135/2/2 138/2/2
f 136/1/2 137/1/2 140/1/2
f 138/1/2 139/1/2 140/1/2
f 137/1/2 138/1/2 140/1/2
f 136/1/2 140/1/2 142/1/2
f 140/1/2 141/1/2 142/1/2
f 132/1/2 136/1/2 142/1/2
f 142/1/2 141/1/2 143/1/2
f 144/5/2 145/5/2 146/5/2
f 146/5/2 145/5/2 147/5/2
f 152/1/3 149/1/3 148/1/3
f 153/1/3 149/1/3 152/1/3
f 156/7/3 151/7/3 150/7/3
f 157/7/3 151/7/3 156/7/3
f 158/1/3 155/1/3 154/1/3
f 159/1/3 149/1/3 153/1/3
f 160/1/3 159/1/3 158/1/3
f 160/1/3 158/1/3 154/1/3
f 161/1/3 149/1/3 159/1/3
f 161/1/3 159/1/3 160/1/3
f 166/7/3 163/7/3 162/7/3
f 167/7/3 163/7/3 166/7/3
f 169/1/3 165/1/3 164/1/3
f 170/1/3 165/1/3 169/1/3
f 173/7/3 168/7/3 167/7/3
f 174/7/3 168/7/3 173/7/3
f 175/2/3 170/2/3 169/2/3
f 176/3/3 171/3/3 170/3/3
f 176/2/3 170/2/3 175/2/3
f 177/2/3 172/2/3 171/2/3
f 177/3/3 171/3/3 176/3/3
f 178/7/3 173/7/3 167/7/3
f 178/2/3 174/2/3 173/2/3
f 179/7/3 168/7/3 174/7/3
f 179/2/3 174/2/3 178/2/3
f 180/7/3 168/7/3 179/7/3
f 181/4/3 176/4/3 175/4/3
f 182/2/3 177/2/3 176/2/3
f 182/4/3 176/4/3 181/4/3
f 183/2/3 172/2/3 177/2/3
f 183/2/3 177/2/3 182/2/3
f 185/7/3 178/7/3 167/7/3
f 186/7/3 178/7/3 185/7/3
f 187/2/3 182/2/3 181/2/3
f 188/3/3 183/3/3 182/3/3
f 188/2/3 182/2/3 187/2/3
f 189/2/3 172/2/3 183/2/3
f 189/3/3 183/3/3 188/3/3
f 190/2/3 172/2/3 189/2/3
f 191/7/3 185/7/3 184/7/3
f 192/7/3 185/7/3 191/7/3
f 195/6/3 194/6/3 193/6/3
f 196/6/3 194/6/3 195/6/3
f 203/2/3 197/2/3 196/2/3
f 204/2/3 197/2/3 203/2/3
f 205/1/3 199/1/3 198/1/3
f 206/1/3 199/1/3 205/1/3
f 207/6/3 201/6/3 200/6/3
f 208/2/3 202/2/3 201/2/3
f 208/6/3 201/6/3 207/6/3
f 209/2/3 202/2/3 208/2/3
f 215/2/3 211/2/3 210/2/3
f 216/2/3 211/2/3 215/2/3
f 217/6/3 213/6/3 212/6/3
f 218/2/3 214/2/3 213/2/3
f 218/6/3 213/6/3 217/6/3
f 219/2/3 214/2/3 218/2/3
f 223/2/3 221/2/3 220/2/3
f 224/2/3 221/2/3 223/2/3
f 225/5/3 223/5/3 222/5/3
f 226/5/3 223/5/3 225/5/3
f 229/1/3 228/1/3 227/1/3
f 230/1/3 228/1/3 229/1/3
f 231/1/4 232/1/4 233/1/4
f 233/1/4 232/1/4 234/1/4
f 235/6/4 236/6/4 237/6/4
f 237/6/4 236/6/4 238/6/4
f 238/2/4 239/2/4 243/2/4
f 243/2/4 239/2/4 244/2/4
f 240/6/4 241/6/4 245/6/4
f 241/2/4 242/2/4 246/2/4
f 245/6/4 241/6/4 246/6/4
f 246/2/4 242/2/4 247/2/4
f 248/2/4 249/2/4 253/2/4
f 253/2/4 249/2/4 254/2/4
f 250/6/4 251/6/4 255/6/4
f 251/2/4 252/2/4 256/2/4
f 255/6/4 251/6/4 256/6/4
f 256/2/4 252/2/4 257/2/4
f 258/2/4 259/2/4 261/2/4
f 261/2/4 259/2/4 262/2/4
f 260/5/4 261/5/4 263/5/4
f 263/5/4 261/5/4 264/5/4
f 265/7/4 266/7/4 267/7/4
f 267/7/4 266/7/4 268/7/4
f 268/7/4 269/7/4 270/7/4
f 270/7/4 269/7/4 271/7/4
f 268/7/4 270/7/4 272/7/4
f 268/7/4 272/7/4 275/7/4
f 272/7/4 273/7/4 275/7/4
f 275/7/4 273/7/4 276/7/4
f 274/7/4 275/7/4 278/7/4
f 278/7/4 275/7/4 279/7/4
f 276/1/4 277/1/4 280/1/4
f 280/1/4 277/1/4 281/1/4
f 282/1/4 283/1/4 287/1/4
f 286/1/4 287/1/4 289/1/4
f 288/1/4 289/1/4 290/1/4
f 289/1/4 287/1/4 291/1/4
f 290/1/4 289/1/4 291/1/4
f 284/7/4 285/7/4 292/7/4
f 292/7/4 285/7/4 293/7/4
f 291/1/4 287/1/4 294/1/4
f 287/1/4 283/1/4 295/1/4
f 294/1/4 287/1/4 295/1/4
f 295/1/4 283/1/4 296/1/4
f 296/1/4 283/1/4 297/1/4
f 302/6/5 299/6/5 298/6/5
f 303/6/5 299/6/5 302/6/5
f 304/6/5 301/6/5 300/6/5
f 305/6/5 301/6/5 304/6/5
f 309/7/5 307/7/5 306/7/5
f 310/7/5 307/7/5 309/7/5
f 312/7/5 309/7/5 308/7/5
f 312/7/5 311/7/5 310/7/5
f 312/7/5 310/7/5 309/7/5
f 313/7/5 311/7/5 312/7/5
f 314/7/5 311/7/5 313/7/5
f 315/7/5 311/7/5 314/7/5
f 316/7/5 312/7/5 308/7/5
f 317/7/5 314/7/5 313/7/5
f 318/7/5 314/7/5 317/7/5
f 319/7/5 311/7/5 315/7/5
f 320/7/5 318/7/5 317/7/5
f 320/7/5 319/7/5 318/7/5
f 320/7/5 316/7/5 308/7/5
f 320/7/5 317/7/5 316/7/5
f 321/7/5 319/7/5 320/7/5
f 322/7/5 311/7/5 319/7/5
f 322/7/5 319/7/5 321/7/5
f 323/7/5 311/7/5 322/7/5
f 324/7/5 322/7/5 321/7/5
f 325/7/5 322/7/5 324/7/5
f 330/6/5 327/6/5 326/6/5
f 331/6/5 327/6/5 330/6/5
f 332/5/5 329/5/5 328/5/5
f 333/5/5 329/5/5 332/5/5
f 336/1/5 335/1/5 334/1/5
f 337/1/5 335/1/5 336/1/5
f 338/1/5 335/1/5 337/1/5
f 343/2/5 340/2/5 339/2/5
f 344/2/5 340/2/5 343/2/5
f 345/2/5 342/2/5 341/2/5
f 346/2/5 342/2/5 345/2/5
f 349/1/5 348/1/5 347/1/5
f 350/1/5 348/1/5 349/1/5
f 353/1/5 352/1/5 351/1/5
f 354/1/5 352/1/5 353/1/5
f 360/1/5 356/1/5 355/1/5
f 361/1/5 356/1/5 360/1/5
f 362/1/5 358/1/5 357/1/5
f 363/1/5 358/1/5 362/1/5
f 364/1/5 360/1/5 359/1/5
f 365/1/5 360/1/5 364/1/5
f 368/1/5 367/1/5 366/1/5
f 371/1/5 368/1/5 366/1/5
f 372/1/5 368/1/5 371/1/5
f 373/1/5 370/1/5 369/1/5
f 374/1/5 370/1/5 373/1/5
f 380/1/5 376/1/5 375/1/5
f 381/2/5 377/2/5 376/2/5
f 381/1/5 376/1/5 380/1/5
f 382/4/5 378/4/5 377/4/5
f 382/2/5 377/2/5 381/2/5
f 383/2/5 379/2/5 378/2/5
f 383/4/5 378/4/5 382/4/5
f 384/2/5 382/2/5 381/2/5
f 385/2/5 379/2/5 383/2/5
f 386/2/5 384/2/5 381/2/5
f 386/2/5 385/2/5 384/2/5
f 387/2/5 379/2/5 385/2/5
f 387/2/5 385/2/5 386/2/5
f 390/1/5 389/1/5 388/1/5
f 391/1/5 389/1/5 390/1/5
f 394/1/5 393/1/5 392/1/5
f 395/1/5 393/1/5 394/1/5
f 396/7/6 397/7/6 399/7/6
f 399/7/6 397/7/6 400/7/6
f 398/7/6 399/7/6 402/7/6
f 402/7/6 399/7/6 403/7/6
f 400/7/6 401/7/6 404/7/6
f 404/7/6 401/7/6 405/7/6
f 403/7/6 404/7/6 406/7/6
f 406/7/6 404/7/6 407/7/6
f 408/6/6 409/6/6 412/6/6
f 412/6/6 409/6/6 413/6/6
f 410/5/6 411/5/6 414/5/6
f 414/5/6 411/5/6 415/5/6
f 416/2/6 417/2/6 418/2/6
f 418/2/6 417/2/6 419/2/6
f 420/1/6 421/1/6 423/1/6
f 423/1/6 421/1/6 424/1/6
f 422/7/6 423/7/6 425/7/6
f 423/7/6 424/7/6 425/7/6
f 425/7/6 424/7/6 426/7/6
f 426/7/6 424/7/6 427/7/6
f 425/7/6 426/7/6 428/7/6
f 427/7/6 424/7/6 429/7/6
f 425/7/6 428/7/6 430/7/6
f 428/7/6 429/7/6 430/7/6
f 429/7/6 424/7/6 431/7/6
f 430/7/6 429/7/6 431/7/6
f 432/1/6 433/1/6 434/1/6
f 434/1/6 433/1/6 435/1/6
