# MagicaVoxel @ ephtracy

# material
mtllib ShenTe.mtl
usemtl palette

# normals
vn -1 0 0
vn 1 0 0
vn 0 0 1
vn 0 0 -1
vn 0 -1 0
vn 0 1 0

# texcoords
vt 0.0566406 0.5
vt 0.0605469 0.5
vt 0.533203 0.5
vt 0.841797 0.5
vt 0.857422 0.5
vt 0.861328 0.5
vt 0.865234 0.5
vt 0.869141 0.5
vt 0.873047 0.5
vt 0.876953 0.5
vt 0.994141 0.5

# verts
v -4 2 1.5
v -4 2 -1.5
v -4 3 1.5
v -4 3 -1.5
v -4 4 0.5
v -4 4 -0.5
v -4 5 0.5
v -4 5 -0.5
v -3 2 2.5
v -3 2 1.5
v -3 2 -1.5
v -3 2 -2.5
v -3 3 2.5
v -3 3 1.5
v -3 3 -1.5
v -3 3 -2.5
v -3 4 1.5
v -3 4 0.5
v -3 4 -0.5
v -3 4 -1.5
v -3 5 0.5
v -3 5 -0.5
v -3 6 0.5
v -3 6 -0.5
v -3 7 1.5
v -3 7 -2.5
v -3 8 2.5
v -3 8 1.5
v -3 11 2.5
v -3 11 1.5
v -3 11 -1.5
v -3 11 -2.5
v -3 12 1.5
v -3 12 -1.5
v -2 0 0.5
v -2 0 -0.5
v -2 1 0.5
v -2 1 -0.5
v -2 2 3.5
v -2 2 2.5
v -2 2 -2.5
v -2 2 -3.5
v -2 3 3.5
v -2 3 2.5
v -2 3 1.5
v -2 3 0.5
v -2 3 -0.5
v -2 3 -1.5
v -2 3 -2.5
v -2 3 -3.5
v -2 4 2.5
v -2 4 1.5
v -2 4 -1.5
v -2 4 -2.5
v -2 5 1.5
v -2 5 0.5
v -2 5 -0.5
v -2 5 -1.5
v -2 5 -2.5
v -2 6 2.5
v -2 6 1.5
v -2 6 0.5
v -2 6 -0.5
v -2 6 -1.5
v -2 7 1.5
v -2 7 -1.5
v -2 7 -2.5
v -2 8 2.5
v -2 8 1.5
v -2 11 2.5
v -2 11 1.5
v -2 11 -1.5
v -2 11 -2.5
v -2 12 2.5
v -2 12 1.5
v -2 12 -1.5
v -2 12 -2.5
v -2 13 1.5
v -2 13 -1.5
v -1 4 -1.5
v -1 4 -2.5
v -1 5 -1.5
v -1 5 -2.5
v 1 0 0.5
v 1 0 -0.5
v 1 1 0.5
v 1 1 -0.5
v 1 2 2.5
v 1 2 1.5
v 1 3 2.5
v 1 3 1.5
v 1 3 0.5
v 1 3 -0.5
v 1 6 2.5
v 1 6 1.5
v 1 7 1.5
v 1 7 0.5
v 1 8 2.5
v 1 8 1.5
v 1 8 0.5
v 2 2 1.5
v 2 2 0.5
v 2 2 -1.5
v 2 2 -2.5
v 2 3 1.5
v 2 3 0.5
v 2 3 -1.5
v 2 3 -2.5
v 2 8 2.5
v 2 8 1.5
v 2 9 1.5
v 2 10 2.5
v 2 10 1.5
v 3 2 0.5
v 3 2 -1.5
v 3 3 0.5
v 3 3 -1.5
v 3 4 0.5
v 3 4 -0.5
v 3 5 0.5
v 3 5 -0.5
v -3 2 1.5
v -3 2 -1.5
v -3 3 1.5
v -3 3 -1.5
v -3 4 0.5
v -3 4 -0.5
v -3 5 0.5
v -3 5 -0.5
v -2 2 2.5
v -2 2 1.5
v -2 2 -1.5
v -2 2 -2.5
v -2 3 2.5
v -2 3 1.5
v -2 3 -1.5
v -2 3 -2.5
v -2 8 2.5
v -2 8 1.5
v -2 9 1.5
v -2 10 2.5
v -2 10 1.5
v -1 0 0.5
v -1 0 -0.5
v -1 1 0.5
v -1 1 -0.5
v -1 3 0.5
v -1 3 -0.5
v -1 6 2.5
v -1 6 1.5
v -1 7 1.5
v -1 7 0.5
v -1 8 2.5
v -1 8 1.5
v -1 8 0.5
v 1 4 -1.5
v 1 4 -2.5
v 1 5 -1.5
v 1 5 -2.5
v 2 0 0.5
v 2 0 -0.5
v 2 1 0.5
v 2 1 -0.5
v 2 2 3.5
v 2 2 2.5
v 2 2 0.5
v 2 2 -2.5
v 2 2 -3.5
v 2 3 3.5
v 2 3 2.5
v 2 3 1.5
v 2 3 0.5
v 2 3 -0.5
v 2 3 -1.5
v 2 3 -2.5
v 2 3 -3.5
v 2 4 2.5
v 2 4 1.5
v 2 4 -1.5
v 2 4 -2.5
v 2 5 1.5
v 2 5 0.5
v 2 5 -0.5
v 2 5 -1.5
v 2 5 -2.5
v 2 6 2.5
v 2 6 1.5
v 2 6 0.5
v 2 6 -0.5
v 2 6 -1.5
v 2 7 1.5
v 2 7 -1.5
v 2 7 -2.5
v 2 8 2.5
v 2 8 1.5
v 2 11 -1.5
v 2 11 -2.5
v 2 12 1.5
v 2 12 -1.5
v 2 12 -2.5
v 2 13 1.5
v 2 13 -1.5
v 3 2 2.5
v 3 2 1.5
v 3 2 -1.5
v 3 2 -2.5
v 3 3 2.5
v 3 3 1.5
v 3 3 -1.5
v 3 3 -2.5
v 3 4 1.5
v 3 4 0.5
v 3 4 -0.5
v 3 4 -1.5
v 3 5 0.5
v 3 5 -0.5
v 3 6 0.5
v 3 6 -0.5
v 3 7 1.5
v 3 7 -2.5
v 3 8 2.5
v 3 8 1.5
v 3 11 2.5
v 3 11 1.5
v 3 11 -1.5
v 3 11 -2.5
v 3 12 2.5
v 3 12 1.5
v 3 12 -1.5
v 4 2 1.5
v 4 2 -1.5
v 4 3 1.5
v 4 3 -1.5
v 4 4 0.5
v 4 4 -0.5
v 4 5 0.5
v 4 5 -0.5
v -2 2 3.5
v -2 3 3.5
v 2 2 3.5
v 2 3 3.5
v -3 2 2.5
v -3 3 2.5
v -3 8 2.5
v -3 11 2.5
v -2 2 2.5
v -2 3 2.5
v -2 4 2.5
v -2 6 2.5
v -2 8 2.5
v -2 10 2.5
v -2 11 2.5
v -2 12 2.5
v -1 6 2.5
v -1 8 2.5
v 1 6 2.5
v 1 8 2.5
v 2 2 2.5
v 2 3 2.5
v 2 4 2.5
v 2 6 2.5
v 2 8 2.5
v 2 10 2.5
v 2 11 2.5
v 2 12 2.5
v 3 2 2.5
v 3 3 2.5
v 3 8 2.5
v 3 11 2.5
v 3 12 2.5
v -4 2 1.5
v -4 3 1.5
v -3 2 1.5
v -3 3 1.5
v -3 4 1.5
v -3 7 1.5
v -3 8 1.5
v -3 11 1.5
v -3 12 1.5
v -2 3 1.5
v -2 4 1.5
v -2 5 1.5
v -2 6 1.5
v -2 7 1.5
v -2 8 1.5
v -2 9 1.5
v -2 10 1.5
v -2 11 1.5
v -2 12 1.5
v -2 13 1.5
v -1 6 1.5
v -1 7 1.5
v -1 8 1.5
v -1 9 1.5
v -1 10 1.5
v 1 6 1.5
v 1 7 1.5
v 1 8 1.5
v 1 9 1.5
v 1 10 1.5
v 2 3 1.5
v 2 4 1.5
v 2 5 1.5
v 2 6 1.5
v 2 7 1.5
v 2 8 1.5
v 2 9 1.5
v 2 10 1.5
v 2 12 1.5
v 2 13 1.5
v 3 2 1.5
v 3 3 1.5
v 3 4 1.5
v 3 7 1.5
v 3 8 1.5
v 4 2 1.5
v 4 3 1.5
v -4 4 0.5
v -4 5 0.5
v -3 4 0.5
v -3 5 0.5
v -3 6 0.5
v -2 0 0.5
v -2 1 0.5
v -2 3 0.5
v -2 5 0.5
v -2 6 0.5
v -1 0 0.5
v -1 1 0.5
v -1 3 0.5
v -1 7 0.5
v -1 8 0.5
v 1 0 0.5
v 1 1 0.5
v 1 3 0.5
v 1 7 0.5
v 1 8 0.5
v 2 0 0.5
v 2 1 0.5
v 2 2 0.5
v 2 3 0.5
v 2 5 0.5
v 2 6 0.5
v 3 4 0.5
v 3 5 0.5
v 3 6 0.5
v 4 4 0.5
v 4 5 0.5
v -3 2 -1.5
v -3 3 -1.5
v -2 2 -1.5
v -2 3 -1.5
v 2 2 -1.5
v 2 3 -1.5
v 3 2 -1.5
v 3 3 -1.5
v -2 2 -2.5
v -2 3 -2.5
v 2 2 -2.5
v 2 3 -2.5
v -2 2 2.5
v -2 3 2.5
v 1 2 2.5
v 1 3 2.5
v -3 2 1.5
v -3 3 1.5
v -2 2 1.5
v -2 3 1.5
v 1 2 1.5
v 1 3 1.5
v 2 2 1.5
v 2 3 1.5
v 2 2 0.5
v 2 3 0.5
v 3 2 0.5
v 3 3 0.5
v -4 4 -0.5
v -4 5 -0.5
v -3 4 -0.5
v -3 5 -0.5
v -3 6 -0.5
v -2 0 -0.5
v -2 1 -0.5
v -2 3 -0.5
v -2 5 -0.5
v -2 6 -0.5
v -1 0 -0.5
v -1 1 -0.5
v -1 3 -0.5
v 1 0 -0.5
v 1 1 -0.5
v 1 3 -0.5
v 2 0 -0.5
v 2 1 -0.5
v 2 3 -0.5
v 2 5 -0.5
v 2 6 -0.5
v 3 4 -0.5
v 3 5 -0.5
v 3 6 -0.5
v 4 4 -0.5
v 4 5 -0.5
v -4 2 -1.5
v -4 3 -1.5
v -3 2 -1.5
v -3 3 -1.5
v -3 4 -1.5
v -3 11 -1.5
v -3 12 -1.5
v -2 3 -1.5
v -2 4 -1.5
v -2 5 -1.5
v -2 11 -1.5
v -2 12 -1.5
v -2 13 -1.5
v -1 4 -1.5
v -1 5 -1.5
v 1 4 -1.5
v 1 5 -1.5
v 2 3 -1.5
v 2 4 -1.5
v 2 5 -1.5
v 2 11 -1.5
v 2 12 -1.5
v 2 13 -1.5
v 3 2 -1.5
v 3 3 -1.5
v 3 4 -1.5
v 3 11 -1.5
v 3 12 -1.5
v 4 2 -1.5
v 4 3 -1.5
v -3 2 -2.5
v -3 3 -2.5
v -3 7 -2.5
v -3 11 -2.5
v -2 2 -2.5
v -2 3 -2.5
v -2 4 -2.5
v -2 5 -2.5
v -2 7 -2.5
v -2 11 -2.5
v -2 12 -2.5
v -1 4 -2.5
v -1 5 -2.5
v 1 4 -2.5
v 1 5 -2.5
v 2 2 -2.5
v 2 3 -2.5
v 2 4 -2.5
v 2 5 -2.5
v 2 7 -2.5
v 2 11 -2.5
v 2 12 -2.5
v 3 2 -2.5
v 3 3 -2.5
v 3 7 -2.5
v 3 11 -2.5
v -2 2 -3.5
v -2 3 -3.5
v 2 2 -3.5
v 2 3 -3.5
v -2 0 0.5
v -1 0 0.5
v 1 0 0.5
v 2 0 0.5
v -2 0 -0.5
v -1 0 -0.5
v 1 0 -0.5
v 2 0 -0.5
v -2 2 3.5
v 2 2 3.5
v -3 2 2.5
v -2 2 2.5
v 1 2 2.5
v 2 2 2.5
v 3 2 2.5
v -4 2 1.5
v -3 2 1.5
v -2 2 1.5
v 1 2 1.5
v 2 2 1.5
v 3 2 1.5
v 4 2 1.5
v 2 2 0.5
v 3 2 0.5
v -4 2 -1.5
v -3 2 -1.5
v -2 2 -1.5
v 2 2 -1.5
v 3 2 -1.5
v 4 2 -1.5
v -3 2 -2.5
v -2 2 -2.5
v 2 2 -2.5
v 3 2 -2.5
v -2 2 -3.5
v 2 2 -3.5
v -2 3 2.5
v 1 3 2.5
v -3 3 1.5
v -2 3 1.5
v 1 3 1.5
v 2 3 1.5
v -2 3 0.5
v -1 3 0.5
v 1 3 0.5
v 2 3 0.5
v 3 3 0.5
v -2 3 -0.5
v -1 3 -0.5
v 1 3 -0.5
v 2 3 -0.5
v -3 3 -1.5
v -2 3 -1.5
v 2 3 -1.5
v 3 3 -1.5
v -2 3 -2.5
v 2 3 -2.5
v -4 4 0.5
v -3 4 0.5
v 3 4 0.5
v 4 4 0.5
v -4 4 -0.5
v -3 4 -0.5
v 3 4 -0.5
v 4 4 -0.5
v -3 5 0.5
v -2 5 0.5
v 2 5 0.5
v 3 5 0.5
v -3 5 -0.5
v -2 5 -0.5
v 2 5 -0.5
v 3 5 -0.5
v -2 5 -1.5
v -1 5 -1.5
v 1 5 -1.5
v 2 5 -1.5
v -2 5 -2.5
v -1 5 -2.5
v 1 5 -2.5
v 2 5 -2.5
v -2 6 2.5
v -1 6 2.5
v 1 6 2.5
v 2 6 2.5
v -2 6 1.5
v -1 6 1.5
v 1 6 1.5
v 2 6 1.5
v -3 7 1.5
v -2 7 1.5
v 2 7 1.5
v 3 7 1.5
v -2 7 -1.5
v 2 7 -1.5
v -3 7 -2.5
v -2 7 -2.5
v 2 7 -2.5
v 3 7 -2.5
v -3 8 2.5
v -2 8 2.5
v 2 8 2.5
v 3 8 2.5
v -3 8 1.5
v -2 8 1.5
v -1 8 1.5
v 1 8 1.5
v 2 8 1.5
v 3 8 1.5
v -1 8 0.5
v 1 8 0.5
v -2 10 2.5
v 2 10 2.5
v -2 10 1.5
v -1 10 1.5
v 1 10 1.5
v 2 10 1.5
v -2 3 3.5
v 2 3 3.5
v -3 3 2.5
v -2 3 2.5
v 2 3 2.5
v 3 3 2.5
v -4 3 1.5
v -3 3 1.5
v -2 3 1.5
v 2 3 1.5
v 3 3 1.5
v 4 3 1.5
v -4 3 -1.5
v -3 3 -1.5
v -2 3 -1.5
v 2 3 -1.5
v 3 3 -1.5
v 4 3 -1.5
v -3 3 -2.5
v -2 3 -2.5
v 2 3 -2.5
v 3 3 -2.5
v -2 3 -3.5
v 2 3 -3.5
v -2 4 2.5
v 2 4 2.5
v -3 4 1.5
v -2 4 1.5
v 2 4 1.5
v 3 4 1.5
v -3 4 0.5
v 3 4 0.5
v -3 4 -0.5
v 3 4 -0.5
v -3 4 -1.5
v -2 4 -1.5
v -1 4 -1.5
v 1 4 -1.5
v 2 4 -1.5
v 3 4 -1.5
v -2 4 -2.5
v -1 4 -2.5
v 1 4 -2.5
v 2 4 -2.5
v -4 5 0.5
v -3 5 0.5
v 3 5 0.5
v 4 5 0.5
v -4 5 -0.5
v -3 5 -0.5
v 3 5 -0.5
v 4 5 -0.5
v -3 6 0.5
v -2 6 0.5
v 2 6 0.5
v 3 6 0.5
v -3 6 -0.5
v -2 6 -0.5
v 2 6 -0.5
v 3 6 -0.5
v -1 7 1.5
v 1 7 1.5
v -1 7 0.5
v 1 7 0.5
v -2 8 2.5
v -1 8 2.5
v 1 8 2.5
v 2 8 2.5
v -2 8 1.5
v -1 8 1.5
v 1 8 1.5
v 2 8 1.5
v -3 11 2.5
v -2 11 2.5
v -3 11 1.5
v -2 11 1.5
v -3 11 -1.5
v -2 11 -1.5
v 2 11 -1.5
v 3 11 -1.5
v -3 11 -2.5
v -2 11 -2.5
v 2 11 -2.5
v 3 11 -2.5
v -2 12 2.5
v 2 12 2.5
v 3 12 2.5
v -3 12 1.5
v -2 12 1.5
v 2 12 1.5
v 3 12 1.5
v -3 12 -1.5
v -2 12 -1.5
v 2 12 -1.5
v 3 12 -1.5
v -2 12 -2.5
v 2 12 -2.5
v -2 13 1.5
v 2 13 1.5
v -2 13 -1.5
v 2 13 -1.5

# faces
f 3/9/1 2/9/1 1/9/1
f 4/9/1 2/9/1 3/9/1
f 7/2/1 6/2/1 5/2/1
f 8/2/1 6/2/1 7/2/1
f 13/9/1 10/9/1 9/9/1
f 14/9/1 10/9/1 13/9/1
f 15/9/1 12/9/1 11/9/1
f 16/9/1 12/9/1 15/9/1
f 17/8/1 15/8/1 14/8/1
f 18/8/1 15/8/1 17/8/1
f 19/8/1 15/8/1 18/8/1
f 20/8/1 15/8/1 19/8/1
f 23/2/1 22/2/1 21/2/1
f 24/2/1 22/2/1 23/2/1
f 28/10/1 26/10/1 25/10/1
f 29/10/1 28/10/1 27/10/1
f 30/10/1 26/10/1 28/10/1
f 30/10/1 28/10/1 29/10/1
f 31/10/1 26/10/1 30/10/1
f 32/10/1 26/10/1 31/10/1
f 33/10/1 31/10/1 30/10/1
f 34/10/1 31/10/1 33/10/1
f 37/11/1 36/11/1 35/11/1
f 38/11/1 36/11/1 37/11/1
f 43/9/1 40/9/1 39/9/1
f 44/9/1 40/9/1 43/9/1
f 46/2/1 38/2/1 37/2/1
f 47/2/1 38/2/1 46/2/1
f 49/9/1 42/9/1 41/9/1
f 50/9/1 42/9/1 49/9/1
f 51/8/1 45/8/1 44/8/1
f 52/8/1 45/8/1 51/8/1
f 53/8/1 49/8/1 48/8/1
f 54/8/1 49/8/1 53/8/1
f 55/7/1 53/7/1 52/7/1
f 56/7/1 53/7/1 55/7/1
f 57/7/1 53/7/1 56/7/1
f 58/7/1 53/7/1 57/7/1
f 61/6/1 56/6/1 55/6/1
f 62/6/1 56/6/1 61/6/1
f 63/6/1 58/6/1 57/6/1
f 64/10/1 59/10/1 58/10/1
f 64/6/1 58/6/1 63/6/1
f 65/5/1 62/5/1 61/5/1
f 65/5/1 63/5/1 62/5/1
f 65/5/1 64/5/1 63/5/1
f 65/10/1 61/10/1 60/10/1
f 66/10/1 59/10/1 64/10/1
f 66/5/1 64/5/1 65/5/1
f 67/10/1 59/10/1 66/10/1
f 68/10/1 65/10/1 60/10/1
f 69/10/1 65/10/1 68/10/1
f 74/10/1 71/10/1 70/10/1
f 75/10/1 71/10/1 74/10/1
f 76/10/1 73/10/1 72/10/1
f 77/10/1 73/10/1 76/10/1
f 78/10/1 76/10/1 75/10/1
f 79/10/1 76/10/1 78/10/1
f 82/10/1 81/10/1 80/10/1
f 83/10/1 81/10/1 82/10/1
f 86/11/1 85/11/1 84/11/1
f 87/11/1 85/11/1 86/11/1
f 90/9/1 89/9/1 88/9/1
f 91/9/1 89/9/1 90/9/1
f 92/2/1 87/2/1 86/2/1
f 93/2/1 87/2/1 92/2/1
f 96/10/1 95/10/1 94/10/1
f 98/10/1 96/10/1 94/10/1
f 98/10/1 97/10/1 96/10/1
f 99/10/1 97/10/1 98/10/1
f 100/10/1 97/10/1 99/10/1
f 105/9/1 102/9/1 101/9/1
f 106/9/1 102/9/1 105/9/1
f 107/9/1 104/9/1 103/9/1
f 108/9/1 104/9/1 107/9/1
f 111/10/1 110/10/1 109/10/1
f 112/10/1 111/10/1 109/10/1
f 113/10/1 111/10/1 112/10/1
f 116/9/1 115/9/1 114/9/1
f 117/9/1 115/9/1 116/9/1
f 120/2/1 119/2/1 118/2/1
f 121/2/1 119/2/1 120/2/1
f 122/9/2 123/9/2 124/9/2
f 124/9/2 123/9/2 125/9/2
f 126/2/2 127/2/2 128/2/2
f 128/2/2 127/2/2 129/2/2
f 130/9/2 131/9/2 134/9/2
f 134/9/2 131/9/2 135/9/2
f 132/9/2 133/9/2 136/9/2
f 136/9/2 133/9/2 137/9/2
f 138/10/2 139/10/2 140/10/2
f 138/10/2 140/10/2 141/10/2
f 141/10/2 140/10/2 142/10/2
f 143/11/2 144/11/2 145/11/2
f 145/11/2 144/11/2 146/11/2
f 145/2/2 146/2/2 147/2/2
f 147/2/2 146/2/2 148/2/2
f 149/10/2 150/10/2 151/10/2
f 149/10/2 151/10/2 153/10/2
f 151/10/2 152/10/2 153/10/2
f 153/10/2 152/10/2 154/10/2
f 154/10/2 152/10/2 155/10/2
f 156/10/2 157/10/2 158/10/2
f 158/10/2 157/10/2 159/10/2
f 160/11/2 161/11/2 162/11/2
f 162/11/2 161/11/2 163/11/2
f 162/2/2 163/2/2 166/2/2
f 164/9/2 165/9/2 169/9/2
f 169/9/2 165/9/2 170/9/2
f 166/2/2 163/2/2 172/2/2
f 172/2/2 163/2/2 173/2/2
f 167/9/2 168/9/2 175/9/2
f 175/9/2 168/9/2 176/9/2
f 170/8/2 171/8/2 177/8/2
f 177/8/2 171/8/2 178/8/2
f 174/8/2 175/8/2 179/8/2
f 179/8/2 175/8/2 180/8/2
f 178/7/2 179/7/2 181/7/2
f 181/7/2 179/7/2 182/7/2
f 182/7/2 179/7/2 183/7/2
f 183/7/2 179/7/2 184/7/2
f 181/6/2 182/6/2 187/6/2
f 187/6/2 182/6/2 188/6/2
f 183/6/2 184/6/2 189/6/2
f 184/10/2 185/10/2 190/10/2
f 189/6/2 184/6/2 190/6/2
f 187/5/2 188/5/2 191/5/2
f 188/5/2 189/5/2 191/5/2
f 189/5/2 190/5/2 191/5/2
f 186/10/2 187/10/2 191/10/2
f 190/10/2 185/10/2 192/10/2
f 191/5/2 190/5/2 192/5/2
f 192/10/2 185/10/2 193/10/2
f 186/10/2 191/10/2 194/10/2
f 194/10/2 191/10/2 195/10/2
f 196/10/2 197/10/2 199/10/2
f 199/10/2 197/10/2 200/10/2
f 198/10/2 199/10/2 201/10/2
f 201/10/2 199/10/2 202/10/2
f 203/9/2 204/9/2 207/9/2
f 207/9/2 204/9/2 208/9/2
f 205/9/2 206/9/2 209/9/2
f 209/9/2 206/9/2 210/9/2
f 208/8/2 209/8/2 211/8/2
f 211/8/2 209/8/2 212/8/2
f 212/8/2 209/8/2 213/8/2
f 213/8/2 209/8/2 214/8/2
f 215/2/2 216/2/2 217/2/2
f 217/2/2 216/2/2 218/2/2
f 219/10/2 220/10/2 222/10/2
f 221/10/2 222/10/2 223/10/2
f 222/10/2 220/10/2 224/10/2
f 223/10/2 222/10/2 224/10/2
f 224/10/2 220/10/2 225/10/2
f 225/10/2 220/10/2 226/10/2
f 223/4/2 224/4/2 227/4/2
f 224/10/2 225/10/2 228/10/2
f 227/4/2 224/4/2 228/4/2
f 228/10/2 225/10/2 229/10/2
f 230/9/2 231/9/2 232/9/2
f 232/9/2 231/9/2 233/9/2
f 234/2/2 235/2/2 236/2/2
f 236/2/2 235/2/2 237/2/2
f 240/9/3 239/9/3 238/9/3
f 241/9/3 239/9/3 240/9/3
f 246/9/3 243/9/3 242/9/3
f 247/9/3 243/9/3 246/9/3
f 250/10/3 245/10/3 244/10/3
f 251/10/3 245/10/3 250/10/3
f 252/10/3 245/10/3 251/10/3
f 254/10/3 250/10/3 249/10/3
f 255/10/3 250/10/3 254/10/3
f 259/8/3 248/8/3 247/8/3
f 260/8/3 248/8/3 259/8/3
f 261/10/3 257/10/3 256/10/3
f 262/10/3 257/10/3 261/10/3
f 263/10/3 253/10/3 252/10/3
f 263/10/3 252/10/3 251/10/3
f 264/10/3 253/10/3 263/10/3
f 265/10/3 253/10/3 264/10/3
f 266/9/3 259/9/3 258/9/3
f 267/9/3 259/9/3 266/9/3
f 268/10/3 264/10/3 263/10/3
f 268/10/3 263/10/3 262/10/3
f 269/4/3 265/4/3 264/4/3
f 269/10/3 264/10/3 268/10/3
f 270/4/3 265/4/3 269/4/3
f 273/9/3 272/9/3 271/9/3
f 274/9/3 272/9/3 273/9/3
f 280/8/3 275/8/3 274/8/3
f 281/8/3 275/8/3 280/8/3
f 284/10/3 277/10/3 276/10/3
f 285/10/3 277/10/3 284/10/3
f 288/10/3 279/10/3 278/10/3
f 289/10/3 279/10/3 288/10/3
f 291/6/3 283/6/3 282/6/3
f 293/2/3 286/2/3 285/2/3
f 294/3/3 287/3/3 286/3/3
f 294/2/3 286/2/3 293/2/3
f 295/3/3 287/3/3 294/3/3
f 296/5/3 292/5/3 291/5/3
f 296/6/3 291/6/3 282/6/3
f 297/5/3 292/5/3 296/5/3
f 298/1/3 294/1/3 293/1/3
f 299/2/3 295/2/3 294/2/3
f 299/1/3 294/1/3 298/1/3
f 300/2/3 295/2/3 299/2/3
f 302/7/3 282/7/3 281/7/3
f 303/6/3 296/6/3 282/6/3
f 303/7/3 282/7/3 302/7/3
f 304/6/3 296/6/3 303/6/3
f 306/2/3 299/2/3 298/2/3
f 307/3/3 300/3/3 299/3/3
f 307/2/3 299/2/3 306/2/3
f 308/3/3 300/3/3 307/3/3
f 309/10/3 290/10/3 289/10/3
f 310/10/3 290/10/3 309/10/3
f 312/8/3 302/8/3 301/8/3
f 313/8/3 302/8/3 312/8/3
f 314/10/3 306/10/3 305/10/3
f 315/10/3 306/10/3 314/10/3
f 316/9/3 312/9/3 311/9/3
f 317/9/3 312/9/3 316/9/3
f 320/2/3 319/2/3 318/2/3
f 321/2/3 319/2/3 320/2/3
f 326/2/3 322/2/3 321/2/3
f 327/2/3 322/2/3 326/2/3
f 328/11/3 324/11/3 323/11/3
f 329/2/3 325/2/3 324/2/3
f 329/11/3 324/11/3 328/11/3
f 330/2/3 325/2/3 329/2/3
f 336/2/3 332/2/3 331/2/3
f 337/2/3 332/2/3 336/2/3
f 338/11/3 334/11/3 333/11/3
f 339/2/3 335/2/3 334/2/3
f 339/11/3 334/11/3 338/11/3
f 340/2/3 335/2/3 339/2/3
f 341/2/3 335/2/3 340/2/3
f 345/2/3 343/2/3 342/2/3
f 346/2/3 343/2/3 345/2/3
f 347/2/3 345/2/3 344/2/3
f 348/2/3 345/2/3 347/2/3
f 351/9/3 350/9/3 349/9/3
f 352/9/3 350/9/3 351/9/3
f 355/9/3 354/9/3 353/9/3
f 356/9/3 354/9/3 355/9/3
f 359/9/3 358/9/3 357/9/3
f 360/9/3 358/9/3 359/9/3
f 361/9/4 362/9/4 363/9/4
f 363/9/4 362/9/4 364/9/4
f 365/9/4 366/9/4 367/9/4
f 367/9/4 366/9/4 368/9/4
f 369/9/4 370/9/4 371/9/4
f 371/9/4 370/9/4 372/9/4
f 373/9/4 374/9/4 375/9/4
f 375/9/4 374/9/4 376/9/4
f 377/2/4 378/2/4 379/2/4
f 379/2/4 378/2/4 380/2/4
f 380/2/4 381/2/4 385/2/4
f 385/2/4 381/2/4 386/2/4
f 382/11/4 383/11/4 387/11/4
f 383/2/4 384/2/4 388/2/4
f 387/11/4 383/11/4 388/11/4
f 388/2/4 384/2/4 389/2/4
f 390/11/4 391/11/4 393/11/4
f 391/2/4 392/2/4 394/2/4
f 393/11/4 391/11/4 394/11/4
f 394/2/4 392/2/4 395/2/4
f 396/2/4 397/2/4 399/2/4
f 399/2/4 397/2/4 400/2/4
f 398/2/4 399/2/4 401/2/4
f 401/2/4 399/2/4 402/2/4
f 403/9/4 404/9/4 405/9/4
f 405/9/4 404/9/4 406/9/4
f 406/8/4 407/8/4 410/8/4
f 410/8/4 407/8/4 411/8/4
f 408/10/4 409/10/4 413/10/4
f 413/10/4 409/10/4 414/10/4
f 411/7/4 412/7/4 416/7/4
f 416/7/4 412/7/4 417/7/4
f 418/7/4 419/7/4 421/7/4
f 421/7/4 419/7/4 422/7/4
f 414/10/4 415/10/4 424/10/4
f 424/10/4 415/10/4 425/10/4
f 420/8/4 421/8/4 427/8/4
f 427/8/4 421/8/4 428/8/4
f 423/10/4 424/10/4 429/10/4
f 429/10/4 424/10/4 430/10/4
f 426/9/4 427/9/4 431/9/4
f 431/9/4 427/9/4 432/9/4
f 433/9/4 434/9/4 437/9/4
f 437/9/4 434/9/4 438/9/4
f 435/10/4 436/10/4 441/10/4
f 441/10/4 436/10/4 442/10/4
f 438/8/4 439/8/4 444/8/4
f 442/10/4 443/10/4 445/10/4
f 441/10/4 442/10/4 445/10/4
f 440/10/4 441/10/4 445/10/4
f 438/8/4 444/8/4 446/8/4
f 444/10/4 445/10/4 446/10/4
f 445/10/4 443/10/4 447/10/4
f 446/10/4 445/10/4 447/10/4
f 438/8/4 446/8/4 449/8/4
f 449/8/4 446/8/4 450/8/4
f 447/10/4 443/10/4 451/10/4
f 451/10/4 443/10/4 452/10/4
f 452/10/4 443/10/4 453/10/4
f 453/10/4 443/10/4 454/10/4
f 448/9/4 449/9/4 455/9/4
f 455/9/4 449/9/4 456/9/4
f 452/10/4 453/10/4 457/10/4
f 457/10/4 453/10/4 458/10/4
f 459/9/4 460/9/4 461/9/4
f 461/9/4 460/9/4 462/9/4
f 467/11/5 464/11/5 463/11/5
f 468/11/5 464/11/5 467/11/5
f 469/11/5 466/11/5 465/11/5
f 470/11/5 466/11/5 469/11/5
f 474/9/5 472/9/5 471/9/5
f 475/9/5 472/9/5 474/9/5
f 476/9/5 472/9/5 475/9/5
f 479/9/5 474/9/5 473/9/5
f 480/9/5 474/9/5 479/9/5
f 481/9/5 476/9/5 475/9/5
f 481/9/5 477/9/5 476/9/5
f 482/9/5 477/9/5 481/9/5
f 483/9/5 477/9/5 482/9/5
f 485/9/5 484/9/5 483/9/5
f 485/9/5 483/9/5 482/9/5
f 486/9/5 484/9/5 485/9/5
f 487/9/5 479/9/5 478/9/5
f 488/9/5 479/9/5 487/9/5
f 491/9/5 484/9/5 486/9/5
f 492/9/5 484/9/5 491/9/5
f 493/9/5 489/9/5 488/9/5
f 494/9/5 489/9/5 493/9/5
f 495/9/5 491/9/5 490/9/5
f 496/9/5 491/9/5 495/9/5
f 497/9/5 495/9/5 494/9/5
f 498/9/5 495/9/5 497/9/5
f 502/8/5 500/8/5 499/8/5
f 503/8/5 500/8/5 502/8/5
f 505/8/5 502/8/5 501/8/5
f 505/8/5 504/8/5 503/8/5
f 505/8/5 503/8/5 502/8/5
f 506/8/5 504/8/5 505/8/5
f 507/8/5 504/8/5 506/8/5
f 508/8/5 504/8/5 507/8/5
f 510/8/5 505/8/5 501/8/5
f 511/8/5 507/8/5 506/8/5
f 512/8/5 507/8/5 511/8/5
f 513/8/5 509/8/5 508/8/5
f 514/8/5 512/8/5 511/8/5
f 514/8/5 513/8/5 512/8/5
f 514/8/5 510/8/5 501/8/5
f 514/8/5 511/8/5 510/8/5
f 515/8/5 513/8/5 514/8/5
f 516/8/5 509/8/5 513/8/5
f 516/8/5 513/8/5 515/8/5
f 517/8/5 509/8/5 516/8/5
f 518/8/5 516/8/5 515/8/5
f 519/8/5 516/8/5 518/8/5
f 524/2/5 521/2/5 520/2/5
f 525/2/5 521/2/5 524/2/5
f 526/2/5 523/2/5 522/2/5
f 527/2/5 523/2/5 526/2/5
f 532/2/5 529/2/5 528/2/5
f 533/2/5 529/2/5 532/2/5
f 534/2/5 531/2/5 530/2/5
f 535/2/5 531/2/5 534/2/5
f 540/10/5 537/10/5 536/10/5
f 541/10/5 537/10/5 540/10/5
f 542/10/5 539/10/5 538/10/5
f 543/10/5 539/10/5 542/10/5
f 548/10/5 545/10/5 544/10/5
f 549/10/5 545/10/5 548/10/5
f 550/10/5 547/10/5 546/10/5
f 551/10/5 547/10/5 550/10/5
f 556/10/5 553/10/5 552/10/5
f 557/10/5 555/10/5 554/10/5
f 558/10/5 556/10/5 552/10/5
f 559/10/5 556/10/5 558/10/5
f 560/10/5 555/10/5 557/10/5
f 561/10/5 555/10/5 560/10/5
f 566/10/5 563/10/5 562/10/5
f 567/10/5 563/10/5 566/10/5
f 570/10/5 565/10/5 564/10/5
f 571/10/5 565/10/5 570/10/5
f 572/1/5 569/1/5 568/1/5
f 573/1/5 569/1/5 572/1/5
f 576/10/5 575/10/5 574/10/5
f 577/10/5 575/10/5 576/10/5
f 578/10/5 575/10/5 577/10/5
f 579/10/5 575/10/5 578/10/5
f 580/9/6 581/9/6 583/9/6
f 583/9/6 581/9/6 584/9/6
f 582/9/6 583/9/6 587/9/6
f 587/9/6 583/9/6 588/9/6
f 584/9/6 585/9/6 589/9/6
f 589/9/6 585/9/6 590/9/6
f 586/9/6 587/9/6 592/9/6
f 592/9/6 587/9/6 593/9/6
f 590/9/6 591/9/6 596/9/6
f 596/9/6 591/9/6 597/9/6
f 593/9/6 594/9/6 598/9/6
f 598/9/6 594/9/6 599/9/6
f 595/9/6 596/9/6 600/9/6
f 600/9/6 596/9/6 601/9/6
f 599/9/6 600/9/6 602/9/6
f 602/9/6 600/9/6 603/9/6
f 604/8/6 605/8/6 607/8/6
f 607/8/6 605/8/6 608/8/6
f 606/8/6 607/8/6 610/8/6
f 608/8/6 609/8/6 611/8/6
f 610/8/6 607/8/6 612/8/6
f 608/8/6 611/8/6 613/8/6
f 612/8/6 607/8/6 614/8/6
f 614/8/6 607/8/6 615/8/6
f 608/8/6 613/8/6 618/8/6
f 618/8/6 613/8/6 619/8/6
f 615/8/6 616/8/6 620/8/6
f 620/8/6 616/8/6 621/8/6
f 617/8/6 618/8/6 622/8/6
f 622/8/6 618/8/6 623/8/6
f 624/2/6 625/2/6 628/2/6
f 628/2/6 625/2/6 629/2/6
f 626/2/6 627/2/6 630/2/6
f 630/2/6 627/2/6 631/2/6
f 632/2/6 633/2/6 636/2/6
f 636/2/6 633/2/6 637/2/6
f 634/2/6 635/2/6 638/2/6
f 638/2/6 635/2/6 639/2/6
f 640/5/6 641/5/6 642/5/6
f 642/5/6 641/5/6 643/5/6
f 644/10/6 645/10/6 648/10/6
f 648/10/6 645/10/6 649/10/6
f 646/10/6 647/10/6 650/10/6
f 650/10/6 647/10/6 651/10/6
f 652/10/6 653/10/6 654/10/6
f 654/10/6 653/10/6 655/10/6
f 656/10/6 657/10/6 660/10/6
f 660/10/6 657/10/6 661/10/6
f 658/10/6 659/10/6 662/10/6
f 662/10/6 659/10/6 663/10/6
f 664/10/6 665/10/6 668/10/6
f 665/4/6 666/4/6 669/4/6
f 668/10/6 665/10/6 669/10/6
f 669/4/6 666/4/6 670/4/6
f 667/10/6 668/10/6 671/10/6
f 671/10/6 668/10/6 672/10/6
f 669/10/6 670/10/6 673/10/6
f 673/10/6 670/10/6 674/10/6
f 672/10/6 673/10/6 675/10/6
f 675/10/6 673/10/6 676/10/6
f 677/10/6 678/10/6 679/10/6
f 679/10/6 678/10/6 680/10/6
