# MagicaVoxel @ ephtracy

# material
mtllib Sun.mtl
usemtl palette

# normals
vn -1 0 0
vn 1 0 0
vn 0 0 1
vn 0 0 -1
vn 0 -1 0
vn 0 1 0

# texcoords
vt 0.0214844 0.5
vt 0.0332031 0.5
vt 0.0605469 0.5
vt 0.306641 0.5
vt 0.369141 0.5
vt 0.537109 0.5
vt 0.994141 0.5

# verts
v -4 4 1
v -4 4 -0
v -4 5 1
v -4 5 -0
v -3 5 1
v -3 5 -0
v -3 6 1
v -3 6 -0
v -3 8 2
v -3 8 -2
v -3 9 2
v -3 9 -2
v -3 12 2
v -3 12 -2
v -2 0 1
v -2 0 -0
v -2 1 1
v -2 1 -0
v -2 3 2
v -2 3 1
v -2 3 -0
v -2 3 -1
v -2 5 1
v -2 5 -0
v -2 6 1
v -2 6 -0
v -2 6 -1
v -2 6 -2
v -2 7 2
v -2 7 -1
v -2 7 -2
v -1 7 1
v -1 7 -0
v -1 8 1
v -1 8 -0
v 1 0 1
v 1 0 -0
v 1 1 1
v 1 1 -0
v 1 3 1
v 1 3 -0
v 3 4 1
v 3 4 -0
v 3 5 1
v 3 5 -0
v -3 4 1
v -3 4 -0
v -3 5 1
v -3 5 -0
v -1 0 1
v -1 0 -0
v -1 1 1
v -1 1 -0
v -1 3 1
v -1 3 -0
v 1 7 1
v 1 7 -0
v 1 8 1
v 1 8 -0
v 2 0 1
v 2 0 -0
v 2 1 1
v 2 1 -0
v 2 3 2
v 2 3 1
v 2 3 -0
v 2 3 -1
v 2 5 1
v 2 5 -0
v 2 6 1
v 2 6 -0
v 2 6 -1
v 2 6 -2
v 2 7 2
v 2 7 -1
v 2 7 -2
v 3 5 1
v 3 5 -0
v 3 6 1
v 3 6 -0
v 3 8 2
v 3 8 -2
v 3 9 2
v 3 9 -2
v 3 12 2
v 3 12 -2
v 4 4 1
v 4 4 -0
v 4 5 1
v 4 5 -0
v -3 8 2
v -3 9 2
v -3 12 2
v -2 3 2
v -2 7 2
v -2 8 2
v -2 9 2
v -2 10 2
v -2 11 2
v -2 12 2
v -1 5 2
v -1 7 2
v -1 8 2
v -1 9 2
v -1 10 2
v -1 11 2
v -1 12 2
v 1 5 2
v 1 7 2
v 1 8 2
v 1 9 2
v 1 10 2
v 1 11 2
v 1 12 2
v 2 3 2
v 2 7 2
v 2 8 2
v 2 9 2
v 2 10 2
v 2 11 2
v 2 12 2
v 3 8 2
v 3 9 2
v 3 12 2
v -4 4 1
v -4 5 1
v -3 4 1
v -3 5 1
v -3 6 1
v -2 0 1
v -2 1 1
v -2 3 1
v -2 5 1
v -2 6 1
v -1 0 1
v -1 1 1
v -1 3 1
v -1 7 1
v -1 8 1
v 1 0 1
v 1 1 1
v 1 3 1
v 1 7 1
v 1 8 1
v 2 0 1
v 2 1 1
v 2 3 1
v 2 5 1
v 2 6 1
v 3 4 1
v 3 5 1
v 3 6 1
v 4 4 1
v 4 5 1
v -4 4 -0
v -4 5 -0
v -3 4 -0
v -3 5 -0
v -3 6 -0
v -2 0 -0
v -2 1 -0
v -2 3 -0
v -2 5 -0
v -2 6 -0
v -1 0 -0
v -1 1 -0
v -1 3 -0
v -1 7 -0
v -1 8 -0
v 1 0 -0
v 1 1 -0
v 1 3 -0
v 1 7 -0
v 1 8 -0
v 2 0 -0
v 2 1 -0
v 2 3 -0
v 2 5 -0
v 2 6 -0
v 3 4 -0
v 3 5 -0
v 3 6 -0
v 4 4 -0
v 4 5 -0
v -2 3 -1
v -2 6 -1
v 2 3 -1
v 2 6 -1
v -3 8 -2
v -3 9 -2
v -3 12 -2
v -2 6 -2
v -2 7 -2
v 2 6 -2
v 2 7 -2
v 3 8 -2
v 3 9 -2
v 3 12 -2
v -2 0 1
v -1 0 1
v 1 0 1
v 2 0 1
v -2 0 -0
v -1 0 -0
v 1 0 -0
v 2 0 -0
v -2 3 2
v 2 3 2
v -2 3 1
v -1 3 1
v 1 3 1
v 2 3 1
v -2 3 -0
v -1 3 -0
v 1 3 -0
v 2 3 -0
v -2 3 -1
v 2 3 -1
v -4 4 1
v -3 4 1
v 3 4 1
v 4 4 1
v -4 4 -0
v -3 4 -0
v 3 4 -0
v 4 4 -0
v -3 5 1
v -2 5 1
v 2 5 1
v 3 5 1
v -3 5 -0
v -2 5 -0
v 2 5 -0
v 3 5 -0
v -2 6 -1
v 2 6 -1
v -2 6 -2
v 2 6 -2
v -3 8 2
v -2 8 2
v -1 8 2
v 1 8 2
v 2 8 2
v 3 8 2
v -1 8 1
v 1 8 1
v -1 8 -0
v 1 8 -0
v -2 8 -1
v 2 8 -1
v -3 8 -2
v 3 8 -2
v -4 5 1
v -3 5 1
v 3 5 1
v 4 5 1
v -4 5 -0
v -3 5 -0
v 3 5 -0
v 4 5 -0
v -3 6 1
v -2 6 1
v 2 6 1
v 3 6 1
v -3 6 -0
v -2 6 -0
v 2 6 -0
v 3 6 -0
v -2 7 2
v -1 7 2
v 1 7 2
v 2 7 2
v -1 7 1
v 1 7 1
v -1 7 -0
v 1 7 -0
v -2 7 -1
v 2 7 -1
v -2 7 -2
v 2 7 -2
v -3 12 2
v -2 12 2
v -1 12 2
v 1 12 2
v 2 12 2
v 3 12 2
v -2 12 1
v -1 12 1
v 1 12 1
v 2 12 1
v -3 12 -2
v 3 12 -2

# faces
f 3/3/1 2/3/1 1/3/1
f 4/3/1 2/3/1 3/3/1
f 7/6/1 6/6/1 5/6/1
f 8/6/1 6/6/1 7/6/1
f 11/2/1 10/2/1 9/2/1
f 12/2/1 10/2/1 11/2/1
f 13/6/1 12/6/1 11/6/1
f 14/6/1 12/6/1 13/6/1
f 17/6/1 16/6/1 15/6/1
f 18/6/1 16/6/1 17/6/1
f 20/5/1 18/5/1 17/5/1
f 21/5/1 18/5/1 20/5/1
f 23/6/1 21/6/1 20/6/1
f 23/6/1 22/6/1 21/6/1
f 23/6/1 20/6/1 19/6/1
f 24/6/1 22/6/1 23/6/1
f 25/6/1 23/6/1 19/6/1
f 26/6/1 22/6/1 24/6/1
f 27/6/1 22/6/1 26/6/1
f 29/6/1 25/6/1 19/6/1
f 29/6/1 26/6/1 25/6/1
f 29/6/1 27/6/1 26/6/1
f 30/2/1 28/2/1 27/2/1
f 30/6/1 27/6/1 29/6/1
f 31/2/1 28/2/1 30/2/1
f 34/3/1 33/3/1 32/3/1
f 35/3/1 33/3/1 34/3/1
f 38/6/1 37/6/1 36/6/1
f 39/6/1 37/6/1 38/6/1
f 40/5/1 39/5/1 38/5/1
f 41/5/1 39/5/1 40/5/1
f 44/3/1 43/3/1 42/3/1
f 45/3/1 43/3/1 44/3/1
f 46/3/2 47/3/2 48/3/2
f 48/3/2 47/3/2 49/3/2
f 50/6/2 51/6/2 52/6/2
f 52/6/2 51/6/2 53/6/2
f 52/5/2 53/5/2 54/5/2
f 54/5/2 53/5/2 55/5/2
f 56/3/2 57/3/2 58/3/2
f 58/3/2 57/3/2 59/3/2
f 60/6/2 61/6/2 62/6/2
f 62/6/2 61/6/2 63/6/2
f 62/5/2 63/5/2 65/5/2
f 65/5/2 63/5/2 66/5/2
f 65/6/2 66/6/2 68/6/2
f 66/6/2 67/6/2 68/6/2
f 64/6/2 65/6/2 68/6/2
f 68/6/2 67/6/2 69/6/2
f 64/6/2 68/6/2 70/6/2
f 69/6/2 67/6/2 71/6/2
f 71/6/2 67/6/2 72/6/2
f 64/6/2 70/6/2 74/6/2
f 70/6/2 71/6/2 74/6/2
f 71/6/2 72/6/2 74/6/2
f 72/2/2 73/2/2 75/2/2
f 74/6/2 72/6/2 75/6/2
f 75/2/2 73/2/2 76/2/2
f 77/6/2 78/6/2 79/6/2
f 79/6/2 78/6/2 80/6/2
f 81/2/2 82/2/2 83/2/2
f 83/2/2 82/2/2 84/2/2
f 83/6/2 84/6/2 85/6/2
f 85/6/2 84/6/2 86/6/2
f 87/3/2 88/3/2 89/3/2
f 89/3/2 88/3/2 90/3/2
f 96/2/3 92/2/3 91/2/3
f 97/6/3 93/6/3 92/6/3
f 97/2/3 92/2/3 96/2/3
f 98/6/3 93/6/3 97/6/3
f 99/6/3 93/6/3 98/6/3
f 100/6/3 93/6/3 99/6/3
f 101/6/3 95/6/3 94/6/3
f 102/6/3 95/6/3 101/6/3
f 103/3/3 97/3/3 96/3/3
f 104/7/3 98/7/3 97/7/3
f 104/3/3 97/3/3 103/3/3
f 105/3/3 99/3/3 98/3/3
f 105/7/3 98/7/3 104/7/3
f 106/4/3 100/4/3 99/4/3
f 106/3/3 99/3/3 105/3/3
f 107/4/3 100/4/3 106/4/3
f 108/2/3 102/2/3 101/2/3
f 108/6/3 101/6/3 94/6/3
f 109/2/3 102/2/3 108/2/3
f 110/1/3 104/1/3 103/1/3
f 111/3/3 105/3/3 104/3/3
f 111/1/3 104/1/3 110/1/3
f 111/3/3 106/3/3 105/3/3
f 112/3/3 106/3/3 111/3/3
f 113/6/3 107/6/3 106/6/3
f 113/3/3 106/3/3 112/3/3
f 114/6/3 107/6/3 113/6/3
f 115/6/3 109/6/3 108/6/3
f 115/6/3 108/6/3 94/6/3
f 116/6/3 109/6/3 115/6/3
f 117/3/3 111/3/3 110/3/3
f 118/7/3 112/7/3 111/7/3
f 118/3/3 111/3/3 117/3/3
f 119/3/3 113/3/3 112/3/3
f 119/7/3 112/7/3 118/7/3
f 120/4/3 114/4/3 113/4/3
f 120/3/3 113/3/3 119/3/3
f 121/4/3 114/4/3 120/4/3
f 122/2/3 118/2/3 117/2/3
f 123/6/3 119/6/3 118/6/3
f 123/2/3 118/2/3 122/2/3
f 123/6/3 121/6/3 120/6/3
f 123/6/3 120/6/3 119/6/3
f 124/6/3 121/6/3 123/6/3
f 127/3/3 126/3/3 125/3/3
f 128/3/3 126/3/3 127/3/3
f 133/6/3 129/6/3 128/6/3
f 134/6/3 129/6/3 133/6/3
f 135/6/3 131/6/3 130/6/3
f 136/5/3 132/5/3 131/5/3
f 136/6/3 131/6/3 135/6/3
f 137/5/3 132/5/3 136/5/3
f 143/3/3 139/3/3 138/3/3
f 144/3/3 139/3/3 143/3/3
f 145/6/3 141/6/3 140/6/3
f 146/5/3 142/5/3 141/5/3
f 146/6/3 141/6/3 145/6/3
f 147/5/3 142/5/3 146/5/3
f 151/6/3 149/6/3 148/6/3
f 152/6/3 149/6/3 151/6/3
f 153/3/3 151/3/3 150/3/3
f 154/3/3 151/3/3 153/3/3
f 155/3/4 156/3/4 157/3/4
f 157/3/4 156/3/4 158/3/4
f 158/6/4 159/6/4 163/6/4
f 163/6/4 159/6/4 164/6/4
f 160/6/4 161/6/4 165/6/4
f 161/5/4 162/5/4 166/5/4
f 165/6/4 161/6/4 166/6/4
f 166/5/4 162/5/4 167/5/4
f 168/3/4 169/3/4 173/3/4
f 173/3/4 169/3/4 174/3/4
f 170/6/4 171/6/4 175/6/4
f 171/5/4 172/5/4 176/5/4
f 175/6/4 171/6/4 176/6/4
f 176/5/4 172/5/4 177/5/4
f 178/6/4 179/6/4 181/6/4
f 181/6/4 179/6/4 182/6/4
f 180/3/4 181/3/4 183/3/4
f 183/3/4 181/3/4 184/3/4
f 185/6/4 186/6/4 187/6/4
f 187/6/4 186/6/4 188/6/4
f 192/2/4 193/2/4 194/2/4
f 194/2/4 193/2/4 195/2/4
f 189/2/4 190/2/4 196/2/4
f 190/6/4 191/6/4 197/6/4
f 196/2/4 190/2/4 197/2/4
f 197/6/4 191/6/4 198/6/4
f 203/6/5 200/6/5 199/6/5
f 204/6/5 200/6/5 203/6/5
f 205/6/5 202/6/5 201/6/5
f 206/6/5 202/6/5 205/6/5
f 209/6/5 208/6/5 207/6/5
f 210/6/5 208/6/5 209/6/5
f 211/6/5 208/6/5 210/6/5
f 212/6/5 208/6/5 211/6/5
f 214/6/5 211/6/5 210/6/5
f 215/6/5 211/6/5 214/6/5
f 217/6/5 214/6/5 213/6/5
f 217/6/5 216/6/5 215/6/5
f 217/6/5 215/6/5 214/6/5
f 218/6/5 216/6/5 217/6/5
f 223/3/5 220/3/5 219/3/5
f 224/3/5 220/3/5 223/3/5
f 225/3/5 222/3/5 221/3/5
f 226/3/5 222/3/5 225/3/5
f 231/6/5 228/6/5 227/6/5
f 232/6/5 228/6/5 231/6/5
f 233/6/5 230/6/5 229/6/5
f 234/6/5 230/6/5 233/6/5
f 237/2/5 236/2/5 235/2/5
f 238/2/5 236/2/5 237/2/5
f 245/3/5 241/3/5 240/3/5
f 245/1/5 242/1/5 241/1/5
f 246/3/5 243/3/5 242/3/5
f 246/1/5 242/1/5 245/1/5
f 247/3/5 245/3/5 240/3/5
f 248/3/5 243/3/5 246/3/5
f 249/2/5 240/2/5 239/2/5
f 249/3/5 248/3/5 247/3/5
f 249/3/5 247/3/5 240/3/5
f 250/3/5 243/3/5 248/3/5
f 250/3/5 248/3/5 249/3/5
f 250/2/5 244/2/5 243/2/5
f 251/2/5 249/2/5 239/2/5
f 251/2/5 250/2/5 249/2/5
f 252/2/5 244/2/5 250/2/5
f 252/2/5 250/2/5 251/2/5
f 253/3/6 254/3/6 257/3/6
f 257/3/6 254/3/6 258/3/6
f 255/3/6 256/3/6 259/3/6
f 259/3/6 256/3/6 260/3/6
f 261/6/6 262/6/6 265/6/6
f 265/6/6 262/6/6 266/6/6
f 263/6/6 264/6/6 267/6/6
f 267/6/6 264/6/6 268/6/6
f 269/6/6 270/6/6 273/6/6
f 270/2/6 271/2/6 273/2/6
f 271/6/6 272/6/6 274/6/6
f 273/2/6 271/2/6 274/2/6
f 269/6/6 273/6/6 275/6/6
f 274/6/6 272/6/6 276/6/6
f 269/6/6 275/6/6 277/6/6
f 275/6/6 276/6/6 277/6/6
f 276/6/6 272/6/6 278/6/6
f 277/6/6 276/6/6 278/6/6
f 277/2/6 278/2/6 279/2/6
f 279/2/6 278/2/6 280/2/6
f 281/6/6 282/6/6 287/6/6
f 282/4/6 283/4/6 287/4/6
f 283/6/6 284/6/6 288/6/6
f 287/4/6 283/4/6 288/4/6
f 284/4/6 285/4/6 289/4/6
f 288/6/6 284/6/6 289/6/6
f 285/6/6 286/6/6 290/6/6
f 289/4/6 285/4/6 290/4/6
f 288/6/6 289/6/6 291/6/6
f 287/6/6 288/6/6 291/6/6
f 289/6/6 290/6/6 291/6/6
f 281/6/6 287/6/6 291/6/6
f 290/6/6 286/6/6 292/6/6
f 291/6/6 290/6/6 292/6/6
