# MagicaVoxel @ ephtracy

# material
mtllib Wasserverkäufer.mtl
usemtl palette

# normals
vn -1 0 0
vn 1 0 0
vn 0 0 1
vn 0 0 -1
vn 0 -1 0
vn 0 1 0

# texcoords
vt 0.00585938 0.5
vt 0.0332031 0.5
vt 0.0605469 0.5
vt 0.369141 0.5
vt 0.537109 0.5
vt 0.728516 0.5
vt 0.958984 0.5
vt 0.994141 0.5

# verts
v 2 2 1.5
v 2 2 -1.5
v 2 5 1.5
v 2 5 0.5
v 2 5 -0.5
v 2 5 -1.5
v 2 8 0.5
v 2 8 -0.5
v 4 5 0.5
v 4 5 -0.5
v 4 6 0.5
v 4 6 -0.5
v 6 9 0.5
v 6 9 -0.5
v 6 10 0.5
v 6 10 -0.5
v 7 3 0.5
v 7 3 -0.5
v 7 4 0.5
v 7 4 -0.5
v 7 8 1.5
v 7 8 0.5
v 7 8 -1.5
v 7 8 -2.5
v 7 9 0.5
v 7 10 0.5
v 7 10 -0.5
v 7 10 -1.5
v 7 12 1.5
v 7 12 -2.5
v 8 0 0.5
v 8 0 -0.5
v 8 1 0.5
v 8 1 -0.5
v 8 2 1.5
v 8 2 0.5
v 8 2 -0.5
v 8 2 -1.5
v 8 3 1.5
v 8 3 0.5
v 8 3 -0.5
v 8 3 -1.5
v 8 4 1.5
v 8 4 0.5
v 8 4 -0.5
v 8 4 -1.5
v 8 6 0.5
v 8 6 -0.5
v 8 7 1.5
v 8 7 0.5
v 8 7 -0.5
v 8 7 -1.5
v 8 8 0.5
v 8 8 -0.5
v 8 8 -1.5
v 8 9 0.5
v 8 9 -0.5
v 8 10 -0.5
v 8 10 -1.5
v 11 0 0.5
v 11 0 -0.5
v 11 1 0.5
v 11 1 -0.5
v 11 2 0.5
v 11 2 -0.5
v 15 2 1.5
v 15 2 -1.5
v 15 5 1.5
v 15 5 0.5
v 15 5 -0.5
v 15 5 -1.5
v 15 6 0.5
v 15 6 -0.5
v 17 3 0.5
v 17 3 -0.5
v 17 4 0.5
v 17 4 -0.5
v 17 5 0.5
v 17 5 -0.5
v 17 6 0.5
v 17 6 -0.5
v 3 5 0.5
v 3 5 -0.5
v 3 6 0.5
v 3 6 -0.5
v 5 2 1.5
v 5 2 -1.5
v 5 5 1.5
v 5 5 0.5
v 5 5 -0.5
v 5 5 -1.5
v 5 6 0.5
v 5 6 -0.5
v 9 0 0.5
v 9 0 -0.5
v 9 1 0.5
v 9 1 -0.5
v 9 2 0.5
v 9 2 -0.5
v 12 0 0.5
v 12 0 -0.5
v 12 1 0.5
v 12 1 -0.5
v 12 2 1.5
v 12 2 0.5
v 12 2 -0.5
v 12 2 -1.5
v 12 3 1.5
v 12 3 0.5
v 12 3 -0.5
v 12 3 -1.5
v 12 4 1.5
v 12 4 0.5
v 12 4 -0.5
v 12 4 -1.5
v 12 6 0.5
v 12 6 -0.5
v 12 7 1.5
v 12 7 0.5
v 12 7 -0.5
v 12 7 -1.5
v 12 8 0.5
v 12 8 -0.5
v 12 8 -1.5
v 12 9 0.5
v 12 9 -0.5
v 12 10 -0.5
v 12 10 -1.5
v 13 2 0.5
v 13 2 -0.5
v 13 4 0.5
v 13 4 -0.5
v 13 8 1.5
v 13 8 0.5
v 13 8 -1.5
v 13 8 -2.5
v 13 9 0.5
v 13 10 0.5
v 13 10 -0.5
v 13 10 -1.5
v 13 12 1.5
v 13 12 -2.5
v 14 9 0.5
v 14 9 -0.5
v 14 10 0.5
v 14 10 -0.5
v 16 3 0.5
v 16 3 -0.5
v 16 4 0.5
v 16 4 -0.5
v 16 5 0.5
v 16 5 -0.5
v 16 6 0.5
v 16 6 -0.5
v 18 2 1.5
v 18 2 -1.5
v 18 5 1.5
v 18 5 0.5
v 18 5 -0.5
v 18 5 -1.5
v 18 8 0.5
v 18 8 -0.5
v 2 2 1.5
v 2 5 1.5
v 5 2 1.5
v 5 5 1.5
v 7 8 1.5
v 7 12 1.5
v 8 2 1.5
v 8 3 1.5
v 8 4 1.5
v 8 7 1.5
v 8 8 1.5
v 8 9 1.5
v 8 10 1.5
v 8 11 1.5
v 9 8 1.5
v 9 9 1.5
v 9 10 1.5
v 11 8 1.5
v 11 9 1.5
v 11 10 1.5
v 12 2 1.5
v 12 3 1.5
v 12 4 1.5
v 12 7 1.5
v 12 8 1.5
v 12 9 1.5
v 12 10 1.5
v 12 11 1.5
v 13 8 1.5
v 13 12 1.5
v 15 2 1.5
v 15 5 1.5
v 18 2 1.5
v 18 5 1.5
v 2 5 0.5
v 2 8 0.5
v 3 5 0.5
v 3 6 0.5
v 4 5 0.5
v 4 6 0.5
v 5 5 0.5
v 5 6 0.5
v 5 7 0.5
v 6 6 0.5
v 6 7 0.5
v 6 9 0.5
v 6 10 0.5
v 7 3 0.5
v 7 4 0.5
v 7 8 0.5
v 7 9 0.5
v 7 10 0.5
v 8 0 0.5
v 8 1 0.5
v 8 2 0.5
v 8 3 0.5
v 8 4 0.5
v 8 6 0.5
v 8 7 0.5
v 8 8 0.5
v 9 0 0.5
v 9 1 0.5
v 9 2 0.5
v 9 7 0.5
v 9 8 0.5
v 11 0 0.5
v 11 1 0.5
v 11 2 0.5
v 11 7 0.5
v 11 8 0.5
v 12 0 0.5
v 12 1 0.5
v 12 2 0.5
v 12 3 0.5
v 12 4 0.5
v 12 6 0.5
v 12 7 0.5
v 12 8 0.5
v 13 2 0.5
v 13 4 0.5
v 13 8 0.5
v 13 9 0.5
v 13 10 0.5
v 14 6 0.5
v 14 7 0.5
v 14 9 0.5
v 14 10 0.5
v 15 5 0.5
v 15 6 0.5
v 15 7 0.5
v 16 5 0.5
v 16 6 0.5
v 17 5 0.5
v 17 6 0.5
v 18 5 0.5
v 18 8 0.5
v 16 3 -0.5
v 16 4 -0.5
v 17 3 -0.5
v 17 4 -0.5
v 7 8 -1.5
v 7 10 -1.5
v 8 8 -1.5
v 8 10 -1.5
v 12 8 -1.5
v 12 10 -1.5
v 13 8 -1.5
v 13 10 -1.5
v 7 8 0.5
v 7 9 0.5
v 8 8 0.5
v 8 9 0.5
v 12 8 0.5
v 12 9 0.5
v 13 8 0.5
v 13 9 0.5
v 16 3 0.5
v 16 4 0.5
v 17 3 0.5
v 17 4 0.5
v 2 5 -0.5
v 2 8 -0.5
v 3 5 -0.5
v 3 6 -0.5
v 4 5 -0.5
v 4 6 -0.5
v 5 5 -0.5
v 5 6 -0.5
v 5 7 -0.5
v 6 6 -0.5
v 6 7 -0.5
v 6 9 -0.5
v 6 10 -0.5
v 7 3 -0.5
v 7 4 -0.5
v 7 9 -0.5
v 7 10 -0.5
v 8 0 -0.5
v 8 1 -0.5
v 8 2 -0.5
v 8 3 -0.5
v 8 4 -0.5
v 8 6 -0.5
v 8 7 -0.5
v 8 8 -0.5
v 8 9 -0.5
v 8 10 -0.5
v 9 0 -0.5
v 9 1 -0.5
v 9 2 -0.5
v 11 0 -0.5
v 11 1 -0.5
v 11 2 -0.5
v 12 0 -0.5
v 12 1 -0.5
v 12 2 -0.5
v 12 3 -0.5
v 12 4 -0.5
v 12 6 -0.5
v 12 7 -0.5
v 12 8 -0.5
v 12 9 -0.5
v 12 10 -0.5
v 13 2 -0.5
v 13 4 -0.5
v 13 9 -0.5
v 13 10 -0.5
v 14 6 -0.5
v 14 7 -0.5
v 14 9 -0.5
v 14 10 -0.5
v 15 5 -0.5
v 15 6 -0.5
v 15 7 -0.5
v 16 5 -0.5
v 16 6 -0.5
v 17 5 -0.5
v 17 6 -0.5
v 18 5 -0.5
v 18 8 -0.5
v 2 2 -1.5
v 2 5 -1.5
v 5 2 -1.5
v 5 5 -1.5
v 8 2 -1.5
v 8 3 -1.5
v 8 4 -1.5
v 8 7 -1.5
v 8 8 -1.5
v 12 2 -1.5
v 12 3 -1.5
v 12 4 -1.5
v 12 7 -1.5
v 12 8 -1.5
v 15 2 -1.5
v 15 5 -1.5
v 18 2 -1.5
v 18 5 -1.5
v 7 8 -2.5
v 7 12 -2.5
v 13 8 -2.5
v 13 12 -2.5
v 8 0 0.5
v 9 0 0.5
v 11 0 0.5
v 12 0 0.5
v 8 0 -0.5
v 9 0 -0.5
v 11 0 -0.5
v 12 0 -0.5
v 2 2 1.5
v 5 2 1.5
v 8 2 1.5
v 12 2 1.5
v 15 2 1.5
v 18 2 1.5
v 8 2 0.5
v 9 2 0.5
v 11 2 0.5
v 12 2 0.5
v 13 2 0.5
v 8 2 -0.5
v 9 2 -0.5
v 11 2 -0.5
v 12 2 -0.5
v 13 2 -0.5
v 2 2 -1.5
v 5 2 -1.5
v 8 2 -1.5
v 12 2 -1.5
v 15 2 -1.5
v 18 2 -1.5
v 7 3 0.5
v 8 3 0.5
v 7 3 -0.5
v 8 3 -0.5
v 16 4 0.5
v 17 4 0.5
v 16 4 -0.5
v 17 4 -0.5
v 3 6 0.5
v 4 6 0.5
v 5 6 0.5
v 6 6 0.5
v 8 6 0.5
v 12 6 0.5
v 14 6 0.5
v 15 6 0.5
v 16 6 0.5
v 17 6 0.5
v 3 6 -0.5
v 4 6 -0.5
v 5 6 -0.5
v 6 6 -0.5
v 8 6 -0.5
v 12 6 -0.5
v 14 6 -0.5
v 15 6 -0.5
v 16 6 -0.5
v 17 6 -0.5
v 7 8 1.5
v 8 8 1.5
v 9 8 1.5
v 11 8 1.5
v 12 8 1.5
v 13 8 1.5
v 7 8 0.5
v 8 8 0.5
v 9 8 0.5
v 11 8 0.5
v 12 8 0.5
v 13 8 0.5
v 7 8 -1.5
v 8 8 -1.5
v 12 8 -1.5
v 13 8 -1.5
v 7 8 -2.5
v 13 8 -2.5
v 6 9 0.5
v 7 9 0.5
v 8 9 0.5
v 12 9 0.5
v 13 9 0.5
v 14 9 0.5
v 6 9 -0.5
v 7 9 -0.5
v 8 9 -0.5
v 12 9 -0.5
v 13 9 -0.5
v 14 9 -0.5
v 7 10 -0.5
v 8 10 -0.5
v 12 10 -0.5
v 13 10 -0.5
v 7 10 -1.5
v 8 10 -1.5
v 12 10 -1.5
v 13 10 -1.5
v 16 3 0.5
v 17 3 0.5
v 16 3 -0.5
v 17 3 -0.5
v 7 4 0.5
v 8 4 0.5
v 12 4 0.5
v 13 4 0.5
v 7 4 -0.5
v 8 4 -0.5
v 12 4 -0.5
v 13 4 -0.5
v 2 5 1.5
v 5 5 1.5
v 15 5 1.5
v 18 5 1.5
v 2 5 0.5
v 3 5 0.5
v 4 5 0.5
v 5 5 0.5
v 15 5 0.5
v 16 5 0.5
v 17 5 0.5
v 18 5 0.5
v 2 5 -0.5
v 3 5 -0.5
v 4 5 -0.5
v 5 5 -0.5
v 15 5 -0.5
v 16 5 -0.5
v 17 5 -0.5
v 18 5 -0.5
v 2 5 -1.5
v 5 5 -1.5
v 15 5 -1.5
v 18 5 -1.5
v 8 7 1.5
v 12 7 1.5
v 8 7 0.5
v 9 7 0.5
v 11 7 0.5
v 12 7 0.5
v 2 8 0.5
v 7 8 0.5
v 8 8 0.5
v 12 8 0.5
v 13 8 0.5
v 18 8 0.5
v 2 8 -0.5
v 8 8 -0.5
v 12 8 -0.5
v 18 8 -0.5
v 6 10 0.5
v 7 10 0.5
v 13 10 0.5
v 14 10 0.5
v 6 10 -0.5
v 7 10 -0.5
v 13 10 -0.5
v 14 10 -0.5
v 7 12 1.5
v 13 12 1.5
v 7 12 -2.5
v 13 12 -2.5

# faces
f 3/5/1 2/5/1 1/5/1
f 4/5/1 2/5/1 3/5/1
f 5/5/1 2/5/1 4/5/1
f 6/5/1 2/5/1 5/5/1
f 7/5/1 5/5/1 4/5/1
f 8/5/1 5/5/1 7/5/1
f 11/5/1 10/5/1 9/5/1
f 12/5/1 10/5/1 11/5/1
f 15/2/1 14/2/1 13/2/1
f 16/2/1 14/2/1 15/2/1
f 19/5/1 18/5/1 17/5/1
f 20/5/1 18/5/1 19/5/1
f 25/7/1 22/7/1 21/7/1
f 26/7/1 25/7/1 21/7/1
f 28/7/1 24/7/1 23/7/1
f 29/7/1 27/7/1 26/7/1
f 29/7/1 28/7/1 27/7/1
f 29/7/1 26/7/1 21/7/1
f 30/7/1 24/7/1 28/7/1
f 30/7/1 28/7/1 29/7/1
f 33/2/1 32/2/1 31/2/1
f 34/2/1 32/2/1 33/2/1
f 36/4/1 34/4/1 33/4/1
f 37/4/1 34/4/1 36/4/1
f 39/1/1 37/1/1 36/1/1
f 39/1/1 38/1/1 37/1/1
f 39/1/1 36/1/1 35/1/1
f 40/1/1 38/1/1 39/1/1
f 41/1/1 38/1/1 40/1/1
f 42/1/1 38/1/1 41/1/1
f 43/4/1 40/4/1 39/4/1
f 44/4/1 40/4/1 43/4/1
f 45/4/1 42/4/1 41/4/1
f 46/4/1 42/4/1 45/4/1
f 47/1/1 44/1/1 43/1/1
f 47/1/1 45/1/1 44/1/1
f 47/1/1 46/1/1 45/1/1
f 48/1/1 46/1/1 47/1/1
f 49/1/1 47/1/1 43/1/1
f 50/1/1 47/1/1 49/1/1
f 51/1/1 46/1/1 48/1/1
f 52/1/1 46/1/1 51/1/1
f 54/5/1 52/5/1 51/5/1
f 55/5/1 52/5/1 54/5/1
f 56/2/1 54/2/1 53/2/1
f 56/2/1 55/2/1 54/2/1
f 57/2/1 55/2/1 56/2/1
f 58/2/1 55/2/1 57/2/1
f 59/2/1 55/2/1 58/2/1
f 62/2/1 61/2/1 60/2/1
f 63/2/1 61/2/1 62/2/1
f 64/4/1 63/4/1 62/4/1
f 65/4/1 63/4/1 64/4/1
f 68/5/1 67/5/1 66/5/1
f 69/5/1 67/5/1 68/5/1
f 70/5/1 67/5/1 69/5/1
f 71/5/1 67/5/1 70/5/1
f 72/5/1 70/5/1 69/5/1
f 73/5/1 70/5/1 72/5/1
f 76/5/1 75/5/1 74/5/1
f 77/5/1 75/5/1 76/5/1
f 80/5/1 79/5/1 78/5/1
f 81/5/1 79/5/1 80/5/1
f 82/5/2 83/5/2 84/5/2
f 84/5/2 83/5/2 85/5/2
f 86/5/2 87/5/2 88/5/2
f 88/5/2 87/5/2 89/5/2
f 89/5/2 87/5/2 90/5/2
f 90/5/2 87/5/2 91/5/2
f 89/5/2 90/5/2 92/5/2
f 92/5/2 90/5/2 93/5/2
f 94/2/2 95/2/2 96/2/2
f 96/2/2 95/2/2 97/2/2
f 96/4/2 97/4/2 98/4/2
f 98/4/2 97/4/2 99/4/2
f 100/2/2 101/2/2 102/2/2
f 102/2/2 101/2/2 103/2/2
f 102/4/2 103/4/2 105/4/2
f 105/4/2 103/4/2 106/4/2
f 104/1/2 105/1/2 108/1/2
f 108/1/2 105/1/2 109/1/2
f 106/1/2 107/1/2 110/1/2
f 110/1/2 107/1/2 111/1/2
f 108/4/2 109/4/2 112/4/2
f 112/4/2 109/4/2 113/4/2
f 110/4/2 111/4/2 114/4/2
f 114/4/2 111/4/2 115/4/2
f 112/1/2 113/1/2 116/1/2
f 113/1/2 114/1/2 116/1/2
f 114/1/2 115/1/2 116/1/2
f 116/1/2 115/1/2 117/1/2
f 112/1/2 116/1/2 118/1/2
f 118/1/2 116/1/2 119/1/2
f 117/1/2 115/1/2 120/1/2
f 120/1/2 115/1/2 121/1/2
f 120/5/2 121/5/2 123/5/2
f 123/5/2 121/5/2 124/5/2
f 122/2/2 123/2/2 125/2/2
f 123/2/2 124/2/2 125/2/2
f 125/2/2 124/2/2 126/2/2
f 126/2/2 124/2/2 127/2/2
f 127/2/2 124/2/2 128/2/2
f 129/5/2 130/5/2 131/5/2
f 131/5/2 130/5/2 132/5/2
f 133/7/2 134/7/2 137/7/2
f 133/7/2 137/7/2 138/7/2
f 135/7/2 136/7/2 140/7/2
f 138/7/2 139/7/2 141/7/2
f 139/7/2 140/7/2 141/7/2
f 133/7/2 138/7/2 141/7/2
f 140/7/2 136/7/2 142/7/2
f 141/7/2 140/7/2 142/7/2
f 143/2/2 144/2/2 145/2/2
f 145/2/2 144/2/2 146/2/2
f 147/5/2 148/5/2 149/5/2
f 149/5/2 148/5/2 150/5/2
f 151/5/2 152/5/2 153/5/2
f 153/5/2 152/5/2 154/5/2
f 155/5/2 156/5/2 157/5/2
f 157/5/2 156/5/2 158/5/2
f 158/5/2 156/5/2 159/5/2
f 159/5/2 156/5/2 160/5/2
f 158/5/2 159/5/2 161/5/2
f 161/5/2 159/5/2 162/5/2
f 165/5/3 164/5/3 163/5/3
f 166/5/3 164/5/3 165/5/3
f 173/7/3 168/7/3 167/7/3
f 174/7/3 168/7/3 173/7/3
f 175/7/3 168/7/3 174/7/3
f 176/7/3 168/7/3 175/7/3
f 177/2/3 174/2/3 173/2/3
f 178/8/3 175/8/3 174/8/3
f 178/2/3 174/2/3 177/2/3
f 179/2/3 176/2/3 175/2/3
f 179/8/3 175/8/3 178/8/3
f 180/3/3 178/3/3 177/3/3
f 181/2/3 179/2/3 178/2/3
f 181/3/3 178/3/3 180/3/3
f 182/2/3 176/2/3 179/2/3
f 182/2/3 179/2/3 181/2/3
f 183/1/3 170/1/3 169/1/3
f 184/4/3 171/4/3 170/4/3
f 184/1/3 170/1/3 183/1/3
f 185/1/3 172/1/3 171/1/3
f 185/4/3 171/4/3 184/4/3
f 186/1/3 172/1/3 185/1/3
f 187/2/3 181/2/3 180/2/3
f 188/8/3 182/8/3 181/8/3
f 188/2/3 181/2/3 187/2/3
f 189/2/3 176/2/3 182/2/3
f 189/8/3 182/8/3 188/8/3
f 190/7/3 168/7/3 176/7/3
f 190/2/3 176/2/3 189/2/3
f 191/7/3 188/7/3 187/7/3
f 191/7/3 190/7/3 189/7/3
f 191/7/3 189/7/3 188/7/3
f 192/7/3 168/7/3 190/7/3
f 192/7/3 190/7/3 191/7/3
f 195/5/3 194/5/3 193/5/3
f 196/5/3 194/5/3 195/5/3
f 199/5/3 198/5/3 197/5/3
f 200/5/3 198/5/3 199/5/3
f 202/5/3 198/5/3 200/5/3
f 203/5/3 202/5/3 201/5/3
f 204/5/3 198/5/3 202/5/3
f 204/5/3 202/5/3 203/5/3
f 205/5/3 198/5/3 204/5/3
f 206/2/3 205/2/3 204/2/3
f 207/5/3 198/5/3 205/5/3
f 207/2/3 205/2/3 206/2/3
f 212/5/3 198/5/3 207/5/3
f 213/2/3 209/2/3 208/2/3
f 214/2/3 209/2/3 213/2/3
f 218/5/3 211/5/3 210/5/3
f 219/5/3 211/5/3 218/5/3
f 220/1/3 207/1/3 206/1/3
f 221/5/3 212/5/3 207/5/3
f 221/1/3 207/1/3 220/1/3
f 222/5/3 212/5/3 221/5/3
f 223/2/3 216/2/3 215/2/3
f 224/4/3 217/4/3 216/4/3
f 224/2/3 216/2/3 223/2/3
f 225/4/3 217/4/3 224/4/3
f 226/5/3 222/5/3 221/5/3
f 227/5/3 222/5/3 226/5/3
f 231/2/3 227/2/3 226/2/3
f 232/2/3 227/2/3 231/2/3
f 233/2/3 229/2/3 228/2/3
f 234/4/3 230/4/3 229/4/3
f 234/2/3 229/2/3 233/2/3
f 235/4/3 230/4/3 234/4/3
f 239/5/3 232/5/3 231/5/3
f 240/5/3 232/5/3 239/5/3
f 241/5/3 237/5/3 236/5/3
f 241/5/3 236/5/3 235/5/3
f 242/5/3 237/5/3 241/5/3
f 243/5/3 240/5/3 239/5/3
f 246/1/3 239/1/3 238/1/3
f 247/5/3 243/5/3 239/5/3
f 247/1/3 239/1/3 246/1/3
f 248/2/3 245/2/3 244/2/3
f 249/2/3 245/2/3 248/2/3
f 251/2/3 247/2/3 246/2/3
f 252/5/3 243/5/3 247/5/3
f 252/2/3 247/2/3 251/2/3
f 253/5/3 251/5/3 250/5/3
f 253/5/3 252/5/3 251/5/3
f 254/5/3 252/5/3 253/5/3
f 256/5/3 252/5/3 254/5/3
f 257/5/3 256/5/3 255/5/3
f 258/5/3 243/5/3 252/5/3
f 258/5/3 256/5/3 257/5/3
f 258/5/3 252/5/3 256/5/3
f 261/5/3 260/5/3 259/5/3
f 262/5/3 260/5/3 261/5/3
f 265/7/3 264/7/3 263/7/3
f 266/7/3 264/7/3 265/7/3
f 269/7/3 268/7/3 267/7/3
f 270/7/3 268/7/3 269/7/3
f 271/7/4 272/7/4 273/7/4
f 273/7/4 272/7/4 274/7/4
f 275/7/4 276/7/4 277/7/4
f 277/7/4 276/7/4 278/7/4
f 279/5/4 280/5/4 281/5/4
f 281/5/4 280/5/4 282/5/4
f 283/5/4 284/5/4 285/5/4
f 285/5/4 284/5/4 286/5/4
f 286/5/4 284/5/4 288/5/4
f 287/5/4 288/5/4 289/5/4
f 288/5/4 284/5/4 290/5/4
f 289/5/4 288/5/4 290/5/4
f 290/5/4 284/5/4 291/5/4
f 290/2/4 291/2/4 292/2/4
f 291/5/4 284/5/4 293/5/4
f 292/2/4 291/2/4 293/2/4
f 294/2/4 295/2/4 298/2/4
f 298/2/4 295/2/4 299/2/4
f 296/5/4 297/5/4 303/5/4
f 303/5/4 297/5/4 304/5/4
f 292/1/4 293/1/4 305/1/4
f 293/5/4 284/5/4 306/5/4
f 305/1/4 293/1/4 306/1/4
f 306/5/4 284/5/4 307/5/4
f 298/7/4 299/7/4 308/7/4
f 308/7/4 299/7/4 309/7/4
f 300/2/4 301/2/4 310/2/4
f 301/4/4 302/4/4 311/4/4
f 310/2/4 301/2/4 311/2/4
f 311/4/4 302/4/4 312/4/4
f 313/2/4 314/2/4 316/2/4
f 314/4/4 315/4/4 317/4/4
f 316/2/4 314/2/4 317/2/4
f 317/4/4 315/4/4 318/4/4
f 318/5/4 319/5/4 326/5/4
f 319/5/4 320/5/4 326/5/4
f 326/5/4 320/5/4 327/5/4
f 324/7/4 325/7/4 328/7/4
f 328/7/4 325/7/4 329/7/4
f 321/1/4 322/1/4 330/1/4
f 322/5/4 323/5/4 331/5/4
f 330/1/4 322/1/4 331/1/4
f 328/2/4 329/2/4 332/2/4
f 332/2/4 329/2/4 333/2/4
f 330/2/4 331/2/4 335/2/4
f 331/5/4 323/5/4 336/5/4
f 335/2/4 331/2/4 336/2/4
f 334/5/4 335/5/4 337/5/4
f 335/5/4 336/5/4 337/5/4
f 337/5/4 336/5/4 338/5/4
f 338/5/4 336/5/4 340/5/4
f 339/5/4 340/5/4 341/5/4
f 336/5/4 323/5/4 342/5/4
f 341/5/4 340/5/4 342/5/4
f 340/5/4 336/5/4 342/5/4
f 343/5/4 344/5/4 345/5/4
f 345/5/4 344/5/4 346/5/4
f 347/1/4 348/1/4 352/1/4
f 348/4/4 349/4/4 353/4/4
f 352/1/4 348/1/4 353/1/4
f 349/1/4 350/1/4 354/1/4
f 353/4/4 349/4/4 354/4/4
f 350/5/4 351/5/4 355/5/4
f 354/1/4 350/1/4 355/1/4
f 355/5/4 351/5/4 356/5/4
f 357/5/4 358/5/4 359/5/4
f 359/5/4 358/5/4 360/5/4
f 361/7/4 362/7/4 363/7/4
f 363/7/4 362/7/4 364/7/4
f 369/2/5 366/2/5 365/2/5
f 370/2/5 366/2/5 369/2/5
f 371/2/5 368/2/5 367/2/5
f 372/2/5 368/2/5 371/2/5
f 379/1/5 376/1/5 375/1/5
f 380/1/5 376/1/5 379/1/5
f 381/1/5 376/1/5 380/1/5
f 382/1/5 376/1/5 381/1/5
f 385/4/5 381/4/5 380/4/5
f 386/4/5 381/4/5 385/4/5
f 387/5/5 383/5/5 382/5/5
f 388/5/5 383/5/5 387/5/5
f 389/5/5 374/5/5 373/5/5
f 390/5/5 374/5/5 389/5/5
f 391/1/5 386/1/5 385/1/5
f 391/1/5 385/1/5 384/1/5
f 391/1/5 387/1/5 386/1/5
f 392/1/5 387/1/5 391/1/5
f 393/5/5 378/5/5 377/5/5
f 394/5/5 378/5/5 393/5/5
f 397/5/5 396/5/5 395/5/5
f 398/5/5 396/5/5 397/5/5
f 401/6/5 400/6/5 399/6/5
f 402/6/5 400/6/5 401/6/5
f 413/5/5 404/5/5 403/5/5
f 414/5/5 404/5/5 413/5/5
f 415/2/5 406/2/5 405/2/5
f 416/1/5 407/1/5 406/1/5
f 416/2/5 406/2/5 415/2/5
f 417/1/5 407/1/5 416/1/5
f 418/1/5 409/1/5 408/1/5
f 419/2/5 410/2/5 409/2/5
f 419/1/5 409/1/5 418/1/5
f 420/2/5 410/2/5 419/2/5
f 421/5/5 412/5/5 411/5/5
f 422/5/5 412/5/5 421/5/5
f 429/7/5 424/7/5 423/7/5
f 430/2/5 425/2/5 424/2/5
f 430/7/5 424/7/5 429/7/5
f 431/3/5 426/3/5 425/3/5
f 431/2/5 425/2/5 430/2/5
f 432/2/5 427/2/5 426/2/5
f 432/3/5 426/3/5 431/3/5
f 433/7/5 428/7/5 427/7/5
f 433/2/5 427/2/5 432/2/5
f 434/7/5 428/7/5 433/7/5
f 439/7/5 436/7/5 435/7/5
f 439/7/5 438/7/5 437/7/5
f 439/7/5 437/7/5 436/7/5
f 440/7/5 438/7/5 439/7/5
f 447/2/5 442/2/5 441/2/5
f 448/7/5 443/7/5 442/7/5
f 448/2/5 442/2/5 447/2/5
f 449/7/5 443/7/5 448/7/5
f 450/7/5 445/7/5 444/7/5
f 451/2/5 446/2/5 445/2/5
f 451/7/5 445/7/5 450/7/5
f 452/2/5 446/2/5 451/2/5
f 457/7/5 454/7/5 453/7/5
f 458/7/5 454/7/5 457/7/5
f 459/7/5 456/7/5 455/7/5
f 460/7/5 456/7/5 459/7/5
f 461/5/6 462/5/6 463/5/6
f 463/5/6 462/5/6 464/5/6
f 465/5/6 466/5/6 469/5/6
f 469/5/6 466/5/6 470/5/6
f 467/5/6 468/5/6 471/5/6
f 471/5/6 468/5/6 472/5/6
f 473/5/6 474/5/6 477/5/6
f 477/5/6 474/5/6 478/5/6
f 478/5/6 474/5/6 479/5/6
f 479/5/6 474/5/6 480/5/6
f 475/5/6 476/5/6 481/5/6
f 481/5/6 476/5/6 482/5/6
f 482/5/6 476/5/6 483/5/6
f 483/5/6 476/5/6 484/5/6
f 478/6/6 479/6/6 486/6/6
f 486/6/6 479/6/6 487/6/6
f 482/6/6 483/6/6 490/6/6
f 490/6/6 483/6/6 491/6/6
f 487/5/6 488/5/6 493/5/6
f 485/5/6 486/5/6 493/5/6
f 486/5/6 487/5/6 493/5/6
f 493/5/6 488/5/6 494/5/6
f 491/5/6 492/5/6 495/5/6
f 490/5/6 491/5/6 495/5/6
f 489/5/6 490/5/6 495/5/6
f 495/5/6 492/5/6 496/5/6
f 497/1/6 498/1/6 499/1/6
f 499/1/6 498/1/6 500/1/6
f 500/1/6 498/1/6 501/1/6
f 501/1/6 498/1/6 502/1/6
f 503/5/6 504/5/6 509/5/6
f 504/5/6 505/5/6 509/5/6
f 509/5/6 505/5/6 510/5/6
f 507/5/6 508/5/6 511/5/6
f 506/5/6 507/5/6 511/5/6
f 511/5/6 508/5/6 512/5/6
f 513/2/6 514/2/6 517/2/6
f 517/2/6 514/2/6 518/2/6
f 515/2/6 516/2/6 519/2/6
f 519/2/6 516/2/6 520/2/6
f 521/7/6 522/7/6 523/7/6
f 523/7/6 522/7/6 524/7/6
